<?xml version="1.0" standalone="no"?>
<!DOCTYPE svg PUBLIC "-//W3C//DTD SVG 1.1//EN" "http://www.w3.org/Graphics/SVG/1.1/DTD/svg11.dtd" >
<svg>
<metadata>
Created by FontForge 20090622 at Mon May 11 00:19:08 2015
 By deploy user
</metadata>
<defs>
<font id="5thGradeCursive" horiz-adv-x="575" >
  <font-face 
    font-family="5th Grade Cursive"
    font-weight="400"
    font-stretch="normal"
    units-per-em="1000"
    panose-1="2 0 0 0 0 0 0 0 0 0"
    ascent="750"
    descent="-250"
    x-height="498"
    cap-height="1272"
    bbox="-398.045 -1022 1538.2 1272.9"
    underline-thickness="50"
    underline-position="-50"
    unicode-range="U+0020-U+2265"
  />
<missing-glyph horiz-adv-x="700" 
d="M740 1000l-140 -1000h-500l140 1000h500zM564 50l99 900h-400l-99 -900h400z" />
    <glyph glyph-name=".notdef" horiz-adv-x="700" 
d="M740 1000l-140 -1000h-500l140 1000h500zM564 50l99 900h-400l-99 -900h400z" />
    <glyph glyph-name="NULL" horiz-adv-x="0" 
 />
    <glyph glyph-name="nonmarkingreturn" horiz-adv-x="500" 
 />
    <glyph glyph-name="space" unicode=" " horiz-adv-x="500" 
 />
    <glyph glyph-name="space" unicode="&#xa0;" horiz-adv-x="500" 
 />
    <glyph glyph-name="exclam" unicode="!" horiz-adv-x="322" 
d="M156 91q10 2 16.5 0t6.5 -5q-3 -13 -4 -25.5t-5 -26.5q-5 -14 -16.5 -21.5t-23.5 -10.5t-20.5 -1.5t-8.5 6.5q2 13 3.5 26t5.5 25q4 17 19.5 24t26.5 9zM319 1013q30 17 34 0.5t-1 -41.5l-39.5 -214l-41.5 -223q-24 -117 -44.5 -180t-35.5 -88t-21 -12.5t1 54.5l38 218
l36 210q23 142 34 201t40 75z" />
    <glyph glyph-name="quotedbl" unicode="&#x22;" horiz-adv-x="418" 
d="M323 1271q9 2 16 0t6 -5q-2 -13 -3 -25.5t-6 -40.5l-14 -63l-11 -46l-22 -69q-22 -32 -25 34t-1.5 80l2.5 23t3 25q0 18 2.5 30t5.5 24q5 17 20.5 24t26.5 9zM472 1271q9 2 16 0t6 -5q-2 -13 -3 -25.5t-6 -40.5l-14 -63l-11 -45l-22 -70q-22 -32 -25 34t-1.5 80l2.5 23
t3 25q0 18 2.5 30t5.5 24q5 17 20.5 24t26.5 9z" />
    <glyph glyph-name="numbersign" unicode="#" horiz-adv-x="854" 
d="M142 488q-20 6 -20.5 13t14.5 13q0 3 93 3q53 1 115 0l28 76l39 109q-11 0 -22 1q-150 4 -170 13q-19 6 -19.5 13t13.5 13q0 3 94 3q55 1 119 0l36 93q45 117 63 149q13 13 19.5 13t7.5 -8q2 0 -25 -79l-59 -168q26 0 53 -1l121 -2l35 96q45 117 63 149q13 13 20 13t8 -8
q2 0 -25 -79l-61 -172l67 -2q110 -3 131 -10q19 -8 21 -15.5t-15 -12.5q0 -2 -69 -3q-65 -1 -151 -1l-66 -184l72 -2q110 -3 130 -11q20 -7 21.5 -15t-14.5 -12q0 -3 -70 -4q-66 -1 -156 0q-4 -9 -7 -18q-60 -161 -76 -182q-13 -21 -19 -18.5t-7 12.5q-2 1 32 101l35 105
q-77 1 -172 3l-8 -21q-60 -161 -76 -182q-14 -21 -20 -18.5t-7 12.5q-2 1 33 101l38 109q-8 1 -17 1q-150 4 -170 14zM386 517q27 0 57 -1q58 0 115 -2l29 79l38 105q-78 1 -172 3z" />
    <glyph glyph-name="dollar" unicode="$" horiz-adv-x="914" 
d="M714 1121h5l7 -9l-30 -113q89 -30 85 -87l-3 -22l-15 -9h-13q5 32 -69 72q-50 -199 -94 -398q260 -40 258.5 -188t-108 -227.5t-225.5 -111.5q-35 -170 -82 -192l-7 9l15 161l-85 -5l-7 -47q-18 -131 -58 -131q-10 49 -3 105l9 77q-112 10 -181 88l1 13q41 44 72 44h5
q72 -48 120 -68l60 455q-137 53 -121 161l2 14q17 124 203 235q29 0 60 91q19 31 27 31l7 -9l-26 -87q73 26 122 26h4q45 122 65 122zM510 934q-54 -198 -84 -344q82 -27 106 -27q42 196 103 392h-22q-39 0 -103 -21zM324 759l-2 -13q-11 -84 60 -130l5 4v4q16 112 71 284
q-123 -74 -134 -149zM417 520l-60 -447l25 -3l70 2l65 426zM577 485q-39 -219 -58 -399q227 67 239 223t-181 176z" />
    <glyph glyph-name="percent" unicode="%" horiz-adv-x="680" 
d="M127 263q-6 1 64.5 97.5l162 216l182 232t118.5 143.5q30 12 39.5 10.5t-35.5 -62.5l-125 -169l-206.5 -270t-151.5 -183t-34.5 -23.5t-13.5 8.5zM445 863q-8 -57 -53.5 -97t-102.5 -40t-91.5 40t-26.5 97q8 56 53.5 96.5t102.5 40.5t91.5 -40.5t26.5 -96.5zM331 765
q35 13 53 50.5t9 77.5t-41.5 59.5t-68.5 6.5q-35 -13 -53.5 -50.5t-8.5 -77.5t42 -59.5t68 -6.5zM684 387q-8 -57 -53.5 -97t-102.5 -40t-91.5 40t-26.5 97t53.5 97t102.5 40t91.5 -40t26.5 -97zM570 289q35 13 53 50.5t9 77.5t-41.5 59.5t-68.5 6.5q-34 -13 -53 -50.5
t-9 -77.5t42 -59.5t68 -6.5z" />
    <glyph glyph-name="ampersand" unicode="&#x26;" horiz-adv-x="933" 
d="M556 1000h30q78 -19 92 -78.5t-7 -122.5t-180 -203q102 -158 256 -349l3 -4h4q64 132 104 154l28 11l3 -4l-3 -21q-6 -43 -103 -174l64 -77l-1 -11q-22 -22 -53 -22q-14 0 -59 52h-4q-137 -151 -337 -151q-169 21 -226.5 97t-35 183.5t195.5 256.5l75 65
q-71 133 -57 232.5t149 157.5zM458 639q100 90 135 159t5 118.5t-101 37.5t-93.5 -96t54.5 -219zM702 188q-158 152 -270 351q-134 -104 -175 -187.5t-23.5 -160t89.5 -109t171.5 -27.5t207.5 133z" />
    <glyph glyph-name="quotesingle" unicode="'" horiz-adv-x="269" 
d="M323 1271q9 2 16 0t6 -5q-2 -13 -3 -25.5t-6 -40.5l-14 -63l-11 -47l-22 -68q-22 -32 -25 34t-1.5 80l2.5 23t3 25q0 18 2.5 30t5.5 24q5 17 20.5 24t26.5 9z" />
    <glyph glyph-name="parenleft" unicode="(" horiz-adv-x="372" 
d="M473 1247q29 40 25 17.5t-81 -142t-132 -266t-81.5 -337t-13 -333t52.5 -251.5t43 -126.5t-22 -45.5t-47.5 -6.5t-55 132.5t-51.5 263t19.5 348.5t99 343.5t124.5 243.5t120 159.5z" />
    <glyph glyph-name="parenright" unicode=")" horiz-adv-x="372" 
d="M42 -227q-30 -41 -26 -18t81 142.5t132.5 266t82 337t13 332.5t-53 251.5t-43 127t22.5 45.5t47.5 6.5t55 -133t51 -263t-19.5 -348t-98.5 -343.5t-124.5 -243.5t-120 -159.5z" />
    <glyph glyph-name="asterisk" unicode="*" horiz-adv-x="481" 
d="M359 867l72 62.5t33 25.5q10 1 12.5 -4.5t-2.5 -18.5q-8 -16 -53 -60l-38 -37h5q50 1 88.5 0t37.5 -3q8 -6 6 -12.5t-15 -13.5q-17 -7 -76 -11q-28 -1 -56 -3l21 -27q46 -59 46 -73q1 -12 -2.5 -18.5t-14.5 -3.5q-3 -2 -34 32l-49 58l-6 -32q-14 -80 -24 -91
q-8 -11 -14.5 -13.5t-12.5 7.5q-2 0 4 49q4 34 10 75q-32 -29 -61 -52q-39 -34 -41 -33q-12 -2 -14.5 4t3.5 18q4 14 66 73l25 24h-81q-48 1 -48 4q-9 6 -6 12.5t14 12.5q13 9 93 12l35 2l-30 40q-32 44 -37 60q0 13 5 17.5t14 5.5q1 1 25 -25.5t53 -62.5l3 -4q6 27 11 52
q12 58 21 74q9 11 15 11t12 -5q1 0 -3 -38.5t-13 -88.5v-2z" />
    <glyph glyph-name="plus" unicode="+" 
d="M394 371q50 2 88.5 0.5t37.5 -4.5q7 -10 4.5 -19.5t-16.5 -20.5q-17 -11 -76 -17q-35 -4 -72 -6q-5 -25 -11 -52q-16 -80 -32 -91q-10 -11 -20.5 -13.5t-20.5 7.5q-3 0 2 49q5 43 14 96q-52 -1 -95 0q-49 2 -49 5q-8 11 -4.5 21t15.5 19q13 14 94 19l52 4q7 36 16 71
q14 58 28 74q12 11 21.5 11t18.5 -5q3 0 -0.5 -38.5t-12.5 -88.5l-4 -22q11 1 22 1z" />
    <glyph glyph-name="comma" unicode="," horiz-adv-x="268" 
d="M156 91q10 2 16.5 0t6.5 -5q-3 -13 -4 -25.5t-6 -40.5l-14 -63l-15 -45l-22 -43q-51 -78 -31.5 -2t22.5 92.5t2.5 28t-4.5 22.5q-4 10 -2.5 23t5.5 25q4 17 19.5 24t26.5 9z" />
    <glyph glyph-name="hyphen" unicode="-" 
d="M396 391q51 2 89 0t38 -5q6 -15 3 -26.5t-17 -25.5q-18 -14 -77 -21.5t-122 -10.5t-112.5 -1.5t-48.5 6.5q-9 13 -5 26t17 25q13 17 94 24t141 9z" />
    <glyph glyph-name="period" unicode="." horiz-adv-x="318" 
d="M156 91q10 2 16.5 0t6.5 -5q-3 -13 -4 -25.5t-5 -26.5q-5 -14 -16.5 -21.5t-23.5 -10.5t-20.5 -1.5t-8.5 6.5q2 13 3.5 26t5.5 25q4 17 19.5 24t26.5 9z" />
    <glyph glyph-name="slash" unicode="/" horiz-adv-x="415" 
d="M31 -213q-28 -43 -41.5 -38.5t-14.5 27.5q-6 2 66 206l169 464.5l189 497.5t131 302q26 26 40.5 26t16.5 -16q4 -1 -51.5 -161l-130.5 -363l-217 -576.5t-157 -368.5z" />
    <glyph glyph-name="zero" unicode="0" horiz-adv-x="919" 
d="M413 0h-15q-122 0 -200 103q-68 117 -33 313.5t175 345t245 170.5t186.5 -43t108.5 -159t-4 -236.5t-171 -318t-292 -175.5zM274 139q52 -85 146 -85q166 0 286 198t109 359.5t-103.5 223t-179 32.5t-183 -166t-118 -288.5t42.5 -273.5z" />
    <glyph glyph-name="one" unicode="1" horiz-adv-x="415" 
d="M373 775q-28 -200 -104 -604q-31 -136 -55 -153t-41 -18q-12 0 -10 19l6 45q11 76 41.5 223l60 287t46.5 259v3h-2q-37 -50 -46.5 -53.5t-7.5 11.5t24 53t39 60.5t35 26.5t23 4t9 -4.5t-18 -158.5z" />
    <glyph glyph-name="two" unicode="2" horiz-adv-x="961" 
d="M411 125q209 -51 269 -52.5t143 76.5h7l1 -3l-1 -9q-6 -38 -46 -76.5t-106 -53.5t-250.5 5t-244.5 5t-61.5 -15t-6 3.5t-5.5 8.5q6 41 49.5 81.5t134.5 46.5q343 177 394.5 342.5t-10.5 293.5t-182.5 104.5t-186 -117.5t-92 -104t10 55.5t134 139.5t226.5 82
t190.5 -120.5t12 -292t-379.5 -400.5z" />
    <glyph glyph-name="three" unicode="3" horiz-adv-x="964" 
d="M640 578q100 -8 167.5 -80.5t34 -197.5t-202.5 -230q-130 -70 -240 -70h-15q-134 0 -228 109q-34 51 -30 80v1q4 24 47 43l25 3h8q23 0 47.5 -31.5t81 -76t173 -44.5t197.5 90t59.5 197t-117.5 129.5t-194 22.5l-4 6v1q3 23 42 39.5t63 15.5t79.5 43.5t60 117.5
t-58.5 119t-134.5 42t-121 -60t-54 -31.5t71 76t176 45.5t150 -56.5t47.5 -130.5t-130 -172z" />
    <glyph glyph-name="four" unicode="4" horiz-adv-x="804" 
d="M665 580l145 3q25 -2 24 -7q0 -2 -26.5 -32.5t-53.5 -32.5t-66.5 0.5t-42.5 2.5t-29.5 -98l-106.5 -381q-49 -35 -89 -35h-2q-15 0 -15 6q33 124 143 507q-181 1 -298.5 -19t-124 -18t-6.5 4l1 4q154 214 219.5 313t76.5 105t18 6l3 -2q4 -10 -4.5 -56t-226.5 -327h3
q253 47 328 47q0 3 29 4q9 65 94 311q17 41 34 47t34.5 6t5 -91t-66.5 -267z" />
    <glyph glyph-name="five" unicode="5" horiz-adv-x="959" 
d="M645 70q-131 -70 -242 -70h-17q-133 0 -230 109q-34 51 -30 79v2q3 23 49 41l23 4h9q24 0 48.5 -31t82 -75.5t174.5 -44.5t199 90t65 227t-111 165t-217 -16.5t-128.5 -33t25.5 112t44 178.5t36.5 100t89.5 6.5t128.5 -14t103 21t57.5 16.5t-14 -31t-91.5 -55.5
t-136.5 -17.5t-83 4t-39 -137t-26.5 -126t73.5 27.5t144 23.5t156 -52.5t64.5 -220t-206.5 -282.5z" />
    <glyph glyph-name="six" unicode="6" horiz-adv-x="866" 
d="M255 391q175 148 330.5 151.5t223 -54.5t46 -163t-150 -214t-275.5 -110.5t-226 86.5t-50 241t119.5 285t203.5 227t227.5 162t112 50.5t-72 -61t-170 -127t-180.5 -185.5t-138 -288zM252 309q10 -108 70 -161t155 -59.5t179.5 45.5t101.5 163.5t-60.5 158t-199.5 28
t-246 -174.5z" />
    <glyph glyph-name="seven" unicode="7" horiz-adv-x="783" 
d="M124 0h-4q-6 0 -1 39.5t105.5 177.5t211 271l207 250.5t118.5 139.5h-3q-149 -24 -208 -30.5t-195 -15.5t-159 4.5t-23 27.5t8 23t25.5 17.5t134.5 -6.5t219 -6t183.5 25.5t96.5 19t27.5 0.5t16 -9.5t-6.5 -23.5t-53.5 -61t-152.5 -171.5t-202 -256t-142 -209.5
t-72.5 -106.5t-64.5 -63t-66 -36.5z" />
    <glyph glyph-name="eight" unicode="8" horiz-adv-x="911" 
d="M611 575q154 -107 200 -174.5t34 -154.5t-126.5 -166.5t-284 -79.5t-245 53t-46.5 189t357 309v2q-141 121 -115 216t106.5 133t166.5 35t132 -52.5t29 -130.5t-208 -179zM584 594q21 7 86 46t83 101.5t-29.5 108t-115 50t-115 -32.5t-43.5 -109t134 -164zM533 530
q-175 -102 -235.5 -169t-62.5 -146.5t71.5 -122t176 -43.5t203 72.5t73.5 183t-226 225.5z" />
    <glyph glyph-name="nine" unicode="9" horiz-adv-x="965" 
d="M790 539q-175 -147 -330 -150.5t-222.5 54t-46.5 163t150 214.5t275.5 110t226 -87t50.5 -241t-119 -285t-203.5 -226.5t-228 -161.5t-111.5 -50.5t71.5 61t169.5 127t180.5 185.5t137.5 287zM795 622q-10 108 -71 161t-155.5 59.5t-179 -46t-101 -163.5t60 -157.5
t199 -28.5t247.5 175z" />
    <glyph glyph-name="colon" unicode=":" horiz-adv-x="268" 
d="M147 91q10 2 16.5 0t6.5 -5q-3 -13 -4 -25.5t-5 -26.5q-5 -14 -16.5 -21.5t-23.5 -10.5t-20.5 -1.5t-8.5 6.5q2 13 3.5 26t5.5 25q4 17 19.5 24t26.5 9zM223 499q10 2 16.5 0t6.5 -5q-3 -13 -4 -25.5t-5 -26.5q-5 -14 -16.5 -21.5t-23.5 -10.5t-20.5 -1.5t-8.5 6.5
q2 13 3.5 26t5.5 25q4 17 19.5 24t26.5 9z" />
    <glyph glyph-name="semicolon" unicode=";" horiz-adv-x="268" 
d="M147 91q10 2 16.5 0t6.5 -5q-3 -13 -4 -25.5t-6 -40.5l-14 -63l-15 -45l-22 -43q-51 -78 -31.5 -2t22.5 92.5t2.5 28t-4.5 22.5q-4 10 -2.5 23t5.5 25q4 17 19.5 24t26.5 9zM223 499q10 2 16.5 0t6.5 -5q-3 -13 -4 -25.5t-5 -26.5q-5 -14 -16.5 -21.5t-23.5 -10.5
t-20.5 -1.5t-8.5 6.5q2 13 3.5 26t5.5 25q4 17 19.5 24t26.5 9z" />
    <glyph glyph-name="less" unicode="&#x3c;" horiz-adv-x="564" 
d="M150 328q11 31 87.5 67t135.5 60q48 21 78.5 32t47 12.5t16 -16.5t-9.5 -35q-12 -19 -67 -47.5t-116 -55.5q-46 -20 -86 -35l15 -6q70 -32 120 -58q42 -22 69 -39t33 -26t-6.5 -22.5t-31.5 -19.5q-21 -5 -72.5 15.5t-104.5 47.5t-88.5 50.5t-28.5 54.5z" />
    <glyph glyph-name="equal" unicode="=" 
d="M394 371q50 2 88.5 0.5t37.5 -4.5q7 -11 4.5 -20t-16.5 -20q-17 -11 -76 -17t-122 -8.5t-112.5 -1t-49.5 4.5q-8 11 -4.5 21t15.5 19q13 14 94 19.5t141 6.5zM412 499q50 2 88 0.5t38 -4.5q7 -11 4.5 -20t-16.5 -20q-17 -11 -76 -17t-122 -8.5t-112.5 -1t-49.5 4.5
q-8 11 -4.5 21t15.5 19q13 14 93.5 19.5t141.5 6.5z" />
    <glyph glyph-name="greater" unicode="&#x3e;" horiz-adv-x="564" 
d="M508 307q-3 -31 -44.5 -54.5t-102.5 -50.5t-118.5 -47.5t-76.5 -15.5q-17 6 -25.5 19.5t-0.5 22.5t40 26t80 38q58 27 136 59l17 6q-36 15 -76 35q-53 27 -100 55.5t-55 47.5q-3 17 1.5 35t20 16.5t43 -12.5t69.5 -32q53 -24 119.5 -60.5t69.5 -66.5z" />
    <glyph glyph-name="question" unicode="?" horiz-adv-x="639" 
d="M193 91q10 2 16.5 0t6.5 -5q-3 -13 -4 -25.5t-5 -26.5q-5 -14 -16.5 -21.5t-23.5 -10.5t-20.5 -1.5t-8.5 6.5q2 13 3.5 26t5.5 25q4 17 19.5 24t26.5 9zM195 255q13 217 139.5 272t175 103t60.5 137t-65 154t-176.5 32t-129 -101t1.5 -67t12.5 -38t-66 -36.5t6.5 122
t166 166.5t216 -4t99.5 -195t-96.5 -202.5t-166 -99t-99.5 -125t-27.5 -90.5t-25.5 -23.5t-25.5 -4.5z" />
    <glyph glyph-name="at" unicode="@" horiz-adv-x="1099" 
d="M817 11q-18 -8 -37.5 -10.5t-36.5 3.5t-30 23t-20 49q-6 15 -6 32.5v36.5q-18 -40 -37.5 -62.5l-37.5 -41.5q-24 -26 -58 -35.5t-67 -2.5t-60.5 30t-39.5 63q-14 41 -14 81.5t9 77t24 68t31 56.5q18 23 41 44t46.5 37.5t46.5 27t42 12.5q15 1 35 -2.5t39 -9.5t34.5 -13.5
t20.5 -13.5q15 5 26.5 3t11.5 -7q-1 -8 -6.5 -38t-11.5 -71t-11 -87.5t-6 -87.5q-2 -62 6 -88t27 -26q21 0 40.5 14t38.5 37t34.5 49.5t32.5 82t19 157t-109.5 200t-304.5 31t-274.5 -289t44.5 -378t324 -142t257.5 78.5t88.5 81t5.5 -63.5t-279.5 -148.5t-421 115.5
t-57.5 451t326 341.5t339.5 -36.5t115 -230.5t-39 -203.5t-71 -130t-70 -64.5zM527 55q25 -1 48.5 14.5t44 39.5t37.5 54t29 59q0 14 2 35.5t5 43.5t6.5 41t6.5 30q2 12 4 20l2 15q-33 23 -69.5 32.5t-73 1.5t-68 -31.5t-53.5 -64.5q-19 -42 -22.5 -92.5t7.5 -94.5t34.5 -73
t59.5 -30z" />
    <glyph glyph-name="A" unicode="A" horiz-adv-x="1157" 
d="M801 1272h23q66 0 161 -73q57 -57 76 -98q22 58 112 58q19 0 12 -56l-2 -14q-79 -309 -220 -759q-15 -48 -22 -101l-8 -54q-27 -196 21 -196q51 0 140 123q36 51 72 140q15 44 18 48l5 -60q-11 -59 -92 -207q-103 -148 -181 -148q-64 0 -70 111q-5 85 13 210l3 21h-2
q-38 -61 -88 -123q-62 -74 -127 -127q-130 -92 -282 -92q-265 0 -325 267q-23 106 -10 196l5 37q21 150 126 376q204 372 486 488q87 33 156 33zM107 423l-5 -37q-41 -219 95 -348q95 -70 207 -70h25q212 20 355 230q89 97 116 219q94 414 140 638l2 2v2q-69 134 -231 144
q-377 0 -597 -444q-90 -217 -107 -336z" />
    <glyph glyph-name="B" unicode="B" horiz-adv-x="1247" 
d="M707 1272h21q65 0 142 -73q67 -72 54 -161q-19 -137 -214 -335v-2q165 -39 282 -144q125 -117 103 -275l-1 -7q-22 -160 -183 -327h2q98 18 189 81q92 81 121 148q22 43 46 102l5 10l3 1q8 -33 5 -50q-10 -44 -76 -163q-85 -124 -254 -179q-57 -15 -133 -23
q-185 -125 -403 -125q-247 0 -374 202q-89 139 -97 225l2 11q4 30 64 95l14 3q36 -49 98 -113l45 -33h4v2q133 647 193 790q16 37 18 50l4 29h-2q-28 -60 -91 -100q-62 -31 -101 -31q-54 0 -46 54l2 15q15 108 135 190q41 20 82 20h2q72 0 78 -98h2q144 211 259 211z
M443 1009l2 -2v-2q-32 -191 -73 -394q133 98 272 98h13l15 -2q163 145 189 327q-8 82 -51 119q-57 56 -121 56q-100 0 -204 -135zM168 947l-2 -9q-4 -28 25 -33h2q47 0 115 79q16 26 20 48l1 36q20 12 42 12h9l1 2q-12 27 -45 27h-2q-86 0 -153 -123q-10 -18 -13 -39z
M371 586h2q53 4 199 63l29 16h-25q-116 0 -205 -79zM653 653q-77 -68 -143 -88q-84 -31 -159 -50l-108 -425q77 -49 230 -98q174 -56 314 -56h25q17 0 101 91q78 102 92 207q28 200 -139 331q-53 40 -135 65zM46 132v-3q34 -74 94 -150v2l11 63l3 6q-64 43 -108 82zM221 9
q-10 -43 -39 -71q67 -73 212 -105q46 -6 83 -6h23q107 0 219 48v2q-136 0 -371 73z" />
    <glyph glyph-name="C" unicode="C" horiz-adv-x="1079" 
d="M735 1272h31q166 0 246 -140l8 -19q38 17 79 17h2q72 0 80 -44l-1 -8l-5 -4q-5 37 -51 37h-6q-40 0 -92 -29l-2 -38l-1 -10q-13 -91 -110 -178q-32 -18 -53 -18q-44 0 -43 64l1 7q11 78 136 171q3 19 -101 75q-75 36 -148 36h-6q-176 0 -356 -153q-202 -187 -241 -463
q-38 -275 124 -445q138 -161 453 -161q265 0 389 233q29 69 39 90q6 20 7 -54q-33 -105 -72 -156q-87 -125 -277 -182q-94 -25 -184 -25h-50q-383 0 -503 363q-29 127 -15 232l6 46q32 226 229 482q114 123 220 190q148 84 267 84zM898 915q-2 -25 14 -25q50 18 61 92v2
q3 22 -1 56q-64 -55 -74 -125z" />
    <glyph glyph-name="D" unicode="D" horiz-adv-x="1154" 
d="M515 1272h34q195 0 418 -227q26 -28 43 -52q94 52 101 52l3 -7q-3 -19 -81 -77q111 -157 129 -350q8 -92 -1 -160l-5 -34q-31 -218 -222 -421q-128 -121 -296 -121q-109 0 -396 75l-58 6q-135 -206 -249 -206h-8q-63 0 -85 77q-3 8 -1 23l2 13q8 54 95 123q71 52 190 52
h31q7 0 55 141q88 290 178 682l1 9l2 2q-193 87 -176 208q15 107 217 179q45 13 79 13zM297 1126l-3 -17q-10 -73 112 -148l7 -2q32 169 38 169q32 26 61 29h2l6 -4l-4 -10l-35 -205l-3 -6q78 -21 169 -21q132 0 269 42l1 2q-106 117 -190 173q-120 73 -278 73
q-61 0 -135 -46q-15 -14 -17 -29zM593 832q-70 0 -131 17v-2q-18 -124 -125 -530q-50 -162 -97 -261l-11 -22h2q37 0 359 -61q58 -10 106 -10h15q212 0 322 260q35 88 48 177q37 267 -132 511q-187 -79 -356 -79zM-81 -106l-2 -13q-1 -62 43 -62h2q73 0 140 112l24 36
q-37 6 -91 8q-76 0 -112 -62z" />
    <glyph glyph-name="E" unicode="E" horiz-adv-x="1006" 
d="M680 1272h30q138 0 231 -140l5 -18q50 16 81 16q73 0 82 -46l-1 -6l-5 -4q-7 35 -47 35h-21q-36 0 -81 -29l-1 -39q-14 -100 -112 -184q-27 -19 -53 -19q-44 0 -43 61l2 12q11 81 138 167q-31 63 -120 102q-49 21 -109 21q-235 0 -353 -169q-55 -63 -63 -121l-3 -21
q-14 -97 97 -183q72 -44 92 -44q61 11 83 11h23q17 0 23 -13v-2q-25 -51 -157 -65h-7l-12 2q-242 -134 -263 -289q-22 -152 156 -269q140 -71 284 -71q265 0 371 137q52 44 93 154l9 25q15 37 13 -40l-3 -9q-24 -77 -58 -134q-75 -124 -256 -190q-111 -35 -239 -35
q-210 0 -369 117q-75 73 -88 129q-22 69 -14 125l3 21q19 134 189 275q77 53 120 69l1 4q-106 42 -145 115q-38 57 -27 133q19 137 215 301q178 108 309 108zM826 913q-3 -23 14 -23q33 0 56 73l4 17q3 23 -2 58q-62 -53 -72 -125z" />
    <glyph glyph-name="F" unicode="F" horiz-adv-x="1248" 
d="M1397 1272h27q97 -10 93 -38v-2q-8 -52 -337 -125q-53 -7 -55 -21q-50 -49 -77 -139q-51 -149 -56 -184l21 2q101 -8 99 -25l-1 -2q-2 -14 -16 -14l-47 2q-66 -4 -67 -11q-27 -105 -70 -348q-76 -314 -185 -427l2 -2l67 -2h8q220 0 365 156q56 65 103 190l9 18
q5 -49 3 -63q-51 -146 -129 -222q-147 -140 -383 -140l-101 6q-131 -131 -281 -131q-152 0 -275 115q-108 121 -122 179q-51 101 -46 140l1 4q4 30 70 99h9q22 -34 81 -97q101 -86 188 -129q80 -45 301 -103q58 -12 75 -12q38 44 86 150q73 183 99 371l5 48l25 177
q-92 -30 -160 -81q-36 -27 -55 -27q-11 0 -15 10l1 7q17 48 126 100l112 39q20 143 86 301l29 43h-2l-65 -2q-77 0 -364 36l-58 2h-17q-179 0 -229 -73q-47 -56 -53 -96l-2 -13q-4 -29 27 -33q43 0 112 75q19 30 23 54l1 36q26 10 36 10h11q23 0 18 -35q-12 -87 -125 -146
q-46 -17 -69 -17h-11q-52 0 -43 61q13 92 108 177q94 64 241 64l321 -25h69q165 0 205 30q181 83 253 83zM46 132v-3q37 -84 120 -181q142 -121 279 -121q89 0 164 63q-64 0 -259 60q-129 49 -242 132z" />
    <glyph glyph-name="G" unicode="G" horiz-adv-x="1243" 
d="M374 1272h15q116 0 126 -198q-1 -55 -7 -98l-12 -69q75 -29 178 -29q173 0 281 71q61 26 176 131q79 79 153 79q19 -3 17 -14q-85 -145 -131 -471q-66 -344 -108 -432q-5 -30 -83 -158q-47 -62 -133 -146q118 15 184 50q52 23 123 89q49 53 90 146q24 63 30 73
q10 -44 5 -60q-30 -89 -72 -154q-89 -125 -234 -176q-89 -29 -174 -29h-21q-105 -82 -240 -110q-83 -17 -137 -17q-317 0 -453 392q-6 27 -4 42l1 4q4 30 73 99h9l85 -105q63 -50 94 -69q98 283 180 594l33 140q-18 0 -81 81q-70 111 -62 173q13 88 74 158q16 13 25 13z
M325 1168q-12 -84 66 -194l37 -31h3q19 134 -14 231q-27 35 -60 35q-25 0 -32 -41zM623 788h-2q-71 0 -144 25l-1 -2q-13 -98 -107 -408q-71 -206 -118 -319q89 -57 305 -117q132 -31 230 -31q212 179 282 679l50 240l3 23q9 62 42 147q-69 -26 -227 -143q-153 -94 -313 -94
zM45 129l-1 -2q31 -70 101 -158l31 67q-10 0 -131 93zM218 9q-13 -32 -38 -76q128 -106 287 -106h11q107 0 215 50v2q-100 0 -324 63q-65 25 -151 67z" />
    <glyph glyph-name="H" unicode="H" horiz-adv-x="1112" 
d="M1253 1272h5l4 -4q-73 -119 -120 -225q-39 -88 -111 -363q-63 -257 -89 -444q-10 -71 -15 -150q80 22 132 68q46 44 64 101q17 43 23 49q4 0 1 -65q-20 -64 -54 -105q-59 -63 -169 -94l-4 -88q-24 -75 -75 -75q-23 0 -14 59q-5 45 -17 77q-77 -11 -155 -11h-32
q-202 0 -386 73v-2q-6 -40 -93 -244q-42 -79 -57 -79q-9 3 -8 13l100 341q-174 99 -161 192l2 13q13 90 188 152l74 19q90 312 106 429l4 25q17 121 -32 165q-18 12 -37 12q-69 0 -134 -87q-31 -45 -36 -81q-4 -31 22 -36h4q47 0 110 71q21 27 24 50l1 8l1 32q0 6 43 14
q30 0 23 -44q-8 -58 -92 -120q-60 -36 -112 -36t-43 61q16 116 136 196q46 22 85 22q42 0 87 -45q43 -63 26 -184q-11 -81 -110 -448q183 0 389 -181q78 -82 104 -134l1 2q30 214 143 638q64 203 129 338q47 94 86 108q23 17 39 17zM82 338q-8 -58 125 -152l64 237h-14
q-100 0 -171 -73zM343 417l-77 -269q167 -98 410 -98h2q49 0 117 6q-47 94 -121 176q-162 152 -278 173z" />
    <glyph glyph-name="I" unicode="I" horiz-adv-x="1236" 
d="M925 1272h19q83 0 111 -244q6 -80 -6 -164q-25 -176 -152 -544l-91 -222q34 -70 93 -154q119 25 203 93q70 60 92 107q37 64 66 141q27 12 10 -50q-45 -141 -134 -229q-84 -81 -214 -117q-2 -16 -42 -37l-12 -2q-15 0 -29 27l-73 -2l-109 6q-128 -131 -269 -131h-14
q-154 0 -279 121q-142 168 -160 306l2 10q4 31 79 99l9 2q29 -37 55 -84q150 -152 460 -237q96 -25 117 -25q47 57 75 116q-143 338 -97 664l6 40q28 201 147 395q81 115 137 115zM688 764q-30 -286 93 -602q152 395 185 629l6 46q24 167 -32 320q-27 32 -53 37
q-52 -10 -120 -143q-57 -129 -79 -287zM36 129q37 -86 120 -181q138 -121 274 -121h11q80 0 157 60v2h-2q-65 0 -264 63q-134 54 -215 117q-30 18 -79 60h-2zM755 6q-1 -9 -46 -69l-1 -2q36 -4 93 -4v2q-29 44 -42 73h-4z" />
    <glyph glyph-name="J" unicode="J" horiz-adv-x="770" 
d="M423 1272h21q132 0 227 -188q84 -203 32 -575q-29 -208 -112 -500h2q96 48 155 167q21 39 44 108l5 8h2l3 -59q-12 -58 -71 -149q-80 -90 -153 -123l-29 -98q18 -12 27 -26l-1 -4l-6 -4l-28 4q-88 -316 -161 -466q-66 -137 -168 -251q-139 -138 -277 -138
q-152 0 -205 151q-20 77 -12 133l5 34q21 154 185 322q131 123 198 163q151 93 247 125l1 3q-269 129 -341 389q-39 159 -16 322q43 313 267 573q88 79 159 79zM70 684l-7 -46q-41 -296 124 -531q88 -100 162 -138l66 -37q92 31 93 39q80 318 107 508q51 365 -36 594
q-68 138 -172 138h-4q-143 0 -284 -341q-37 -101 -49 -186zM458 -89v-2l29 -13l9 27h-2zM-184 -696q-20 -138 90 -217q38 -25 93 -25q189 0 340 355q56 130 138 437l-81 32q-144 -55 -280 -145q-101 -82 -132 -127q-149 -173 -168 -310z" />
    <glyph glyph-name="K" unicode="K" horiz-adv-x="816" 
d="M892 1272h4q4 0 3 -6q-69 -111 -166 -363q-76 -164 -171 -242q-51 -44 -255 -123v-4q63 -22 119 -52q89 -55 112 -159q17 -88 3 -185q-5 -180 90 -180q90 0 183 265l29 73l4 7l4 -62q-42 -149 -113 -260q-83 -104 -149 -104h-14q-50 0 -89 94q-28 95 -17 202
q0 102 -27 165q-41 88 -153 129l-81 21l-62 -12q-120 -452 -202 -630q-46 -96 -68 -96l-5 8l1 2l105 361q186 667 205 801q20 145 -37 181q-8 6 -32 8q-82 0 -152 -120q-12 -24 -14 -42l-2 -13q3 -29 21 -29h10q31 0 91 54q34 36 39 75l1 34q17 8 41 12q26 0 24 -33l-2 -17
q-8 -54 -94 -117q-58 -33 -106 -33q-52 0 -44 52l3 23q11 80 105 165q59 39 111 39q45 0 87 -45q43 -63 29 -163l-4 -35q-11 -76 -93 -374q44 11 83 11h9q126 50 246 139q101 85 189 290q75 176 124 244q49 44 77 44z" />
    <glyph glyph-name="L" unicode="L" horiz-adv-x="1096" 
d="M737 1272h13q53 0 76 -67q2 -11 -1 -33q-17 -120 -247 -352l-79 -86q-72 -334 -120 -467q-50 -135 -98 -236h5q47 0 286 -45q132 -23 181 -23h13q188 0 313 225l46 111l4 6l5 -54l-4 -15q-41 -130 -111 -211q-134 -150 -336 -150q-111 0 -305 58q-104 23 -139 23
q-131 -206 -251 -206q-72 0 -86 81l1 23l2 17q10 65 99 121q53 42 175 42h36q57 140 140 435l46 192q-136 -97 -273 -129l-1 2v2q12 22 116 65q77 39 169 110q65 270 109 363q43 83 80 121q85 77 136 77zM509 790l-1 -2h3q237 248 254 371l2 13q8 53 -32 69h-17
q-45 0 -111 -130q-41 -95 -72 -210zM-23 -110q-8 -55 28 -71h25q63 0 151 148h-2q-28 4 -80 4h-8q-84 0 -106 -56z" />
    <glyph glyph-name="M" unicode="M" horiz-adv-x="1262" 
d="M524 1272h19q81 0 155 -92q49 -87 41 -146q107 123 186 123l21 2h2q146 0 222 -175q24 -90 7 -212q-14 -99 -121 -522l-22 -112q-22 -159 24 -159q29 0 79 48q91 97 136 227q11 32 17 44l4 4l6 -46l-5 -22q-41 -130 -106 -226q-98 -133 -167 -133h-2q-90 0 -79 192v25
q16 110 139 592l15 79q26 190 -46 271q-57 67 -139 67h-4q-84 0 -164 -113q-10 0 -34 -143q-69 -342 -157 -682q-29 -111 -44 -111q-25 -30 -58 -54h-2q-6 0 -5 21q128 565 220 930l4 27q22 161 -104 223q-30 10 -49 10h-11q-83 0 -179 -108q-33 -43 -63 -92l1 -6l-7 -42
q-47 -334 -229 -1003q-13 -28 -76 -81h-4q-6 2 -4 13q18 130 172 815q39 146 87 279l3 23h-4q-3 -24 -67 -81q-66 -44 -116 -44h-14q-40 0 -37 52l2 17q15 103 127 183q43 25 80 25h21q58 0 68 -98h2q28 57 137 159q68 52 122 52zM-14 951l-2 -13q1 -33 24 -33q50 0 119 83
q15 25 18 46l1 34q16 12 40 12h11l1 2q-11 27 -43 27h-11q-66 0 -131 -96q-23 -38 -27 -62z" />
    <glyph glyph-name="N" unicode="N" horiz-adv-x="930" 
d="M615 1272h39q69 -5 150 -83q86 -112 51 -357l-7 -54q-20 -142 -124 -524l-22 -116q-16 -116 8 -152l14 -7q65 0 172 171q24 47 58 138l3 7l3 4l8 -43l-5 -22q-52 -166 -147 -278q-73 -77 -105 -77q0 -3 -23 -4q-76 0 -82 144l3 69q11 79 127 538q23 98 36 189l1 5
q39 282 -39 335q-56 57 -127 57h-23q-114 0 -243 -105q-37 -40 -77 -96v-8l-7 -42q-47 -334 -229 -1003q-16 -30 -76 -81h-4q-6 2 -4 13q18 130 172 815q39 146 87 279l3 23h-4q-29 -64 -109 -106q-49 -19 -76 -19h-12q-40 0 -37 52l2 17q15 108 137 190q39 18 75 18h12
q63 0 71 -91h5q87 122 214 179q71 25 131 25zM-11 951l-2 -13q1 -33 24 -33q50 0 119 83q15 25 18 46l1 34q14 12 40 12h9l2 -2h2v2q-14 29 -38 29h-14q-79 0 -148 -118q-11 -27 -13 -40z" />
    <glyph glyph-name="O" unicode="O" horiz-adv-x="1204" 
d="M766 1272h33q139 0 267 -111q84 -101 100 -162q14 -35 13 -42q80 31 170 84l13 4l3 -7q-12 -33 -134 -110l-38 -21q17 -131 -4 -279q-42 -300 -268 -553q-211 -200 -491 -200q-284 0 -383 256q-52 158 -33 303l8 52q39 278 220 517q47 63 156 152q140 102 239 102h14
l23 -2q50 17 92 17zM729 1201q-50 -62 -114 -62q-11 0 -53 14q-13 -17 -15 -29l-1 -13q-12 -80 125 -158q101 -42 224 -42q76 0 184 19q-50 152 -174 231q-73 40 -176 40zM101 544q-33 -231 84 -425q64 -78 107 -98q117 -63 221 -63h29q144 0 302 119q206 172 254 507v2
q23 166 -4 286q-146 -40 -248 -40q-201 0 -330 125q-53 59 -45 117l3 15q4 29 31 62h-4q-180 -76 -306 -306q-73 -153 -94 -301z" />
    <glyph glyph-name="P" unicode="P" horiz-adv-x="750" 
d="M598 1272h29q177 0 247 -227q15 -76 5 -144q-21 -147 -132 -271q-78 -71 -126 -84q-110 -54 -230 -54q-111 0 -220 27q-111 -448 -147 -571q-9 -22 -70 -73h-4q-7 8 -5 25q18 128 171 811q39 138 87 273l3 23h-4q-28 -59 -90 -96q-55 -29 -93 -29h-10q-49 0 -41 52l2 17
q15 103 127 183q44 25 80 25h15q71 0 74 -110h3q119 170 235 206q56 17 94 17zM190 607q137 -59 250 -59q198 0 289 161q45 81 57 173q21 145 -63 261q-76 66 -153 66q-74 0 -172 -56q-70 -52 -100 -104q-34 -35 -40 -77q-18 -131 -68 -365zM-11 951l-2 -13q1 -33 26 -33
q45 0 113 77q18 26 22 52l1 36q23 10 40 10h11l1 2q-14 27 -39 27h-15q-65 0 -131 -96q-23 -38 -27 -62z" />
    <glyph glyph-name="Q" unicode="Q" horiz-adv-x="1166" 
d="M656 1272h73q131 -10 256 -106q209 -185 161 -526q-41 -293 -251 -542q-93 -93 -160 -127q-65 -33 -72 -33q47 -82 125 -82h9q98 0 234 155q114 145 156 269l10 24q16 30 5 -35q1 -17 0 -24l-1 -6q-40 -140 -165 -285q-144 -163 -250 -194q-42 -10 -73 -10
q-63 0 -145 154h-2q-126 -29 -257 -29q-142 0 -250 134q-47 80 -40 133l3 19q5 33 64 71q37 25 111 25q223 0 375 -186l54 -79q166 52 287 215q104 161 130 346l6 39q52 370 -176 549q-91 54 -203 54q-142 0 -298 -92q-70 -51 -107 -135l-5 -17l-1 -11q0 -33 22 -33h9
q40 0 104 69q21 27 26 56l1 38q14 8 44 12q27 0 21 -41q-11 -76 -116 -138q-51 -21 -78 -21h-10q-53 0 -43 65q15 109 165 221q125 94 252 104zM107 173q-12 -81 130 -175q75 -42 181 -42q63 2 113 9q-11 35 -120 158q-119 96 -231 96h-6q-51 0 -66 -37z" />
    <glyph glyph-name="R" unicode="R" horiz-adv-x="933" 
d="M527 1272h23q75 0 161 -98q44 -64 33 -138q-20 -140 -232 -352q-81 -68 -108 -85q98 -29 150 -92q84 -76 106 -261q-5 -136 1 -190q17 -98 78 -98h13q83 0 179 269q8 14 26 65h2q5 0 6 -58q-66 -193 -112 -255q-83 -104 -153 -104q-82 0 -112 152q-7 47 -5 188
q-13 100 -38 160q-77 180 -226 180q-17 0 -118 -32q-31 -2 -33 -14q-102 -420 -147 -567q-14 -25 -64 -65l-9 -2q-5 11 -3 21q19 133 171 815q35 125 87 273l3 23h-4q-4 -27 -72 -85q-69 -42 -117 -42q-53 0 -45 54l2 17q14 96 118 177q46 31 98 31h2q72 0 79 -98h2
q33 65 144 165q66 46 114 46zM263 1007l1 -6l-7 -38q-14 -100 -70 -373h2q58 27 131 27q156 55 284 230q63 96 73 169l3 18q10 69 -80 146q-52 29 -90 29q-80 0 -169 -91q-45 -52 -78 -111zM-11 951l-2 -13q-4 -28 24 -33h2q41 0 105 67q26 32 29 58l2 38q20 12 42 12l11 -2
q-10 31 -46 31h-2q-90 0 -157 -133z" />
    <glyph glyph-name="S" unicode="S" horiz-adv-x="1255" 
d="M814 1272h83q135 -17 177 -153q8 -38 -3 -91q-14 -130 -184 -365q174 -126 207 -253q15 -71 6 -138q-23 -165 -184 -326h2q115 21 220 105q77 73 113 167l23 61l9 21l6 10q7 -52 -1 -76q-50 -149 -131 -225q-100 -84 -160 -98q-104 -36 -168 -36q-112 -83 -293 -117
q-58 -8 -95 -8h-33q-321 0 -453 397q-5 22 -3 35l1 9q4 26 68 95h12q30 -31 89 -106q147 -113 170 -113q284 296 429 485q48 55 49 64q-222 191 -193 397q16 117 118 205q58 44 119 54zM655 1067l-2 -14q-17 -124 86 -263q51 -54 96 -84h2q146 206 161 318l4 23
q16 113 -83 164q-33 17 -76 17h-10q-105 0 -164 -115q-11 -25 -14 -46zM814 573q-132 -175 -483 -527q259 -112 489 -112h2q176 132 197 286q26 185 -181 334q-13 16 -24 19zM53 130q35 -85 120 -182h2l58 59q-74 36 -180 123zM272 -18l-64 -63q112 -94 286 -94
q118 0 230 48v2q-87 0 -304 52q-63 21 -148 57v-2z" />
    <glyph glyph-name="T" unicode="T" horiz-adv-x="1244" 
d="M1394 1272h27q97 -10 93 -38v-2q-8 -52 -337 -125q-51 -7 -52 -18q-72 -43 -161 -434q-55 -294 -86 -405q-63 -190 -106 -246q-30 -45 -49 -64l2 -2l67 -2h8q220 0 365 156q56 65 100 192l10 20l7 10q6 -49 -3 -76q-48 -143 -126 -221q-147 -142 -385 -142l-101 6
q-131 -131 -281 -131q-152 0 -275 115q-108 121 -122 179q-51 101 -46 140l1 4q4 30 73 99h9q22 -34 78 -97q173 -156 456 -223q82 -21 108 -21q38 44 86 150q73 183 99 371l4 42l19 133q46 328 131 442h-2l-65 -2q-77 0 -364 36l-58 2h-17q-167 0 -223 -65
q-53 -65 -59 -104l-2 -13q-4 -29 27 -33q43 0 112 75q19 30 23 54l1 36q27 10 36 10h11q23 0 18 -35q-12 -87 -125 -146q-46 -17 -69 -17h-11q-52 0 -43 63q13 89 108 175q94 64 241 64l321 -25h69q165 0 205 30q181 83 253 83zM43 132v-3q37 -84 120 -181
q142 -121 279 -121q89 0 164 63q-64 0 -259 60q-127 49 -242 132z" />
    <glyph glyph-name="U" unicode="U" horiz-adv-x="1079" 
d="M153 1272h16q62 -12 60 -23q70 -50 48 -208q-10 -73 -146 -611l-12 -69l-5 -15q-15 -106 9 -223q77 -165 250 -165q273 0 433 363l186 790q32 48 112 48q15 0 10 -37l-7 -48q-26 -190 -184 -644q-51 -110 -65 -213q-33 -238 17 -238q56 0 153 144q31 47 75 167l6 11l6 11
l-3 -78q-13 -59 -94 -211q-104 -148 -181 -148q-78 0 -72 169l9 106h-3q-16 -42 -152 -160q-137 -97 -238 -105q-53 -10 -134 -10q-113 0 -188 94q-69 106 -42 308q10 71 146 578q30 120 38 177q19 139 -37 186l-20 4h-15q-38 0 -118 -127q-25 -56 -31 -98l-1 -6
q-8 -53 41 -53q56 0 87 86l2 10v32q10 8 42 14q31 0 25 -44q-8 -57 -89 -118q-34 -19 -66 -19h-10q-51 0 -61 54l1 29l3 23q13 97 101 211q56 56 98 56z" />
    <glyph glyph-name="V" unicode="V" horiz-adv-x="907" 
d="M55 1272h10q71 0 105 -85q30 -44 -10 -328q-56 -372 -54 -475q-2 -170 30 -267q30 -69 80 -116q58 -46 141 -46q128 -10 248 153q54 91 109 213q36 92 88 288q88 328 120 396q34 88 69 142q113 125 159 125l4 -4l-110 -133q-46 -86 -86 -215q-62 -311 -123 -484
q-102 -274 -279 -442q-132 -119 -261 -119q-146 0 -231 186q-32 98 -40 221q-13 143 38 504l29 209q24 168 -8 200q-16 27 -50 27h-4q-37 0 -113 -117q-34 -61 -41 -114q-7 -46 36 -53h6q57 0 88 82l2 16v30q20 12 42 12h2q29 0 23 -46q-8 -53 -93 -119q-43 -16 -65 -16
q-56 0 -68 54v29l4 25q16 113 125 234q39 33 78 33z" />
    <glyph glyph-name="W" unicode="W" horiz-adv-x="1293" 
d="M153 1272h16q62 -12 60 -23q70 -50 48 -208q-10 -73 -156 -611l-13 -69l-4 -15q-16 -114 12 -244q45 -131 165 -141q126 0 185 100q52 102 56 125l4 31q25 105 103 411q114 492 126 492q33 39 80 39q13 -4 10 -23q-108 -442 -183 -690q-53 -214 -58 -247q-11 -83 38 -183
q42 -69 128 -49h10q58 0 152 71q129 130 196 331q50 133 148 544q30 138 97 230q115 129 160 129h2q4 0 3 -6l-112 -151q-38 -83 -66 -175l-87 -348q-91 -277 -158 -379q-214 -338 -435 -338q-100 0 -161 129l-8 38h-4q-49 -89 -153 -142q-62 -25 -110 -25q-114 0 -193 104
q-58 118 -36 284q15 102 168 671l18 98q19 139 -37 186l-20 4h-15q-38 0 -118 -127q-25 -56 -31 -98l-1 -6q-8 -53 41 -53q56 0 87 86l2 10v32q9 8 42 14q31 0 25 -44q-8 -57 -89 -118q-34 -19 -66 -19h-10q-51 0 -61 54l1 29l3 23q13 97 101 211q56 56 98 56z" />
    <glyph glyph-name="X" unicode="X" horiz-adv-x="1397" 
d="M1506 1272h2l4 -4l-1 -2q-25 -77 -62 -113l-146 -94q-156 -133 -185 -183q-124 -156 -249 -357l-8 -12q38 -234 99 -367q74 -154 195 -154h19q126 0 234 272q26 65 26 28l-5 -52q-5 -41 -88 -203q-81 -122 -154 -143q-26 -9 -75 -13q-186 0 -250 248q-43 116 -74 265h-2
q-110 -171 -261 -350q-250 -288 -402 -288q-91 0 -145 81q-30 58 -22 113l3 25q14 99 132 208q57 46 111 46q76 0 108 -52l-1 -4q-4 -30 -56 -60h-2q-6 0 -10 16q-23 36 -60 36h-13q-90 0 -135 -103l-10 -35l-3 -25q-15 -104 85 -156q22 -13 48 -13h8q186 0 554 548l59 88
q-66 445 -152 563q-58 83 -112 83h-13q-75 0 -146 -121q-11 -25 -14 -45q-4 -31 22 -36h10q59 15 104 71q21 26 24 50l1 6l1 36q23 10 34 10h12q25 0 19 -44q-7 -53 -88 -116q-63 -38 -109 -38h-12q-43 0 -38 54l2 13q14 98 119 179q51 33 99 33q50 0 115 -56
q68 -73 105 -171q42 -117 92 -354l-1 -4h2q156 249 339 452q229 237 317 244z" />
    <glyph glyph-name="Y" unicode="Y" horiz-adv-x="983" 
d="M156 1272h17q58 0 93 -63q29 -67 15 -165q-11 -83 -142 -594l-17 -92l-4 -14q-15 -107 8 -224q77 -165 253 -165q259 0 412 403q115 401 160 722q8 58 118 79h4q19 0 16 -23q-16 -116 -199 -792l-85 -335q13 0 90 73q79 97 107 193l12 28l7 13l2 -60l-7 -25
q-39 -122 -105 -187q-69 -62 -121 -85q-116 -429 -204 -605q-42 -82 -97 -163q-166 -213 -341 -213q-150 0 -204 148q-24 77 -13 151l1 10q35 246 378 488q176 110 310 152q74 28 100 42q21 78 55 230l1 4h-2q-17 -45 -70 -110q-149 -151 -240 -189q-81 -33 -193 -33h-9
q-172 0 -232 159q-28 114 -10 245q10 68 129 514q43 157 56 243q20 144 -39 186q-8 4 -23 4h-11q-37 0 -118 -128q-25 -55 -32 -98v-6q-8 -53 39 -53q57 0 90 84l2 13l-1 31q14 10 42 15q32 0 26 -44q-8 -58 -91 -119q-35 -19 -64 -19h-9q-54 0 -63 54v29l4 23
q14 99 101 212q56 56 98 56zM30 -690l-2 -14q-18 -123 85 -207q43 -27 97 -27q288 0 484 813q3 0 13 48q-273 -100 -398 -196q-114 -103 -177 -193q-89 -129 -102 -224z" />
    <glyph glyph-name="Z" unicode="Z" horiz-adv-x="1027" 
d="M534 1272h77q208 -10 320 -112q142 -100 122 -243l-2 -17q-33 -234 -412 -630q-42 -44 -167 -150q103 0 190 -40q67 -45 84 -109q105 41 194 113q52 55 96 159q24 75 28 59q5 -37 -4 -68q-9 -43 -65 -146q-67 -95 -234 -165q11 -86 -3 -182l-4 -27q-25 -183 -182 -464
q-126 -196 -274 -251q-65 -21 -107 -21q-140 0 -199 132q-29 86 -17 175q32 238 352 471q129 86 263 146l72 34q-22 61 -74 85q-70 28 -174 28h-38q-246 -178 -366 -178q-56 0 -68 27v11l1 6q6 43 119 113q181 80 333 92q162 127 243 211q271 295 305 537l1 5
q31 219 -239 303q-75 19 -166 19q-133 0 -281 -88q-80 -38 -126 -134l-8 -29v-2q-4 -31 22 -36h10q66 19 107 73q18 26 21 46l1 13l1 31q23 10 44 13q27 0 22 -36l-2 -8q-10 -72 -110 -134q-53 -23 -84 -23h-14q-42 0 -38 54l2 13q17 122 188 237q135 77 240 87zM45 -48
l-1 -2q3 -8 14 -8q39 0 229 98v2q-145 -22 -185 -44q-55 -27 -57 -46zM70 -700q-16 -116 71 -199q46 -39 112 -39q214 0 376 441q37 116 50 211q14 101 -4 172q-181 -74 -324 -170q-92 -67 -131 -127q-131 -152 -150 -289z" />
    <glyph glyph-name="bracketleft" unicode="[" horiz-adv-x="462" 
d="M96 -173q255 -19 253 -45t-163 -33t-157.5 57.5t25 219t61 414.5t79.5 497t62 284q17 26 52 38.5t149.5 12t120.5 -21.5t-270 -47q-29 -256 -60 -458q-37 -248 -82.5 -518.5t-69.5 -399.5z" />
    <glyph glyph-name="backslash" unicode="\" horiz-adv-x="415" 
d="M214 731q-17 204 -27.5 364t-6.5 161q4 15 21 16.5t35 -26.5q18 -65 44.5 -302t50 -498t38 -465t8.5 -206q-4 -22 -20.5 -27t-32.5 38q-22 41 -55 369t-55 576z" />
    <glyph glyph-name="bracketright" unicode="]" horiz-adv-x="463" 
d="M508 1192q-254 19 -252.5 45t162.5 33.5t157.5 -57t-25 -219.5t-61 -414.5t-79.5 -497t-61 -284.5q-18 -26 -53 -38t-149 -12t-120.5 21t270.5 47q29 256 59 459q37 247 82.5 517.5t69.5 399.5z" />
    <glyph glyph-name="asciicircum" unicode="^" horiz-adv-x="567" 
d="M378 602q31 2 49.5 -36t37.5 -95.5t31.5 -112t4.5 -74.5q-8 -17 -23 -28t-23 -4t-21 37t-27 75q-20 53 -41 127l-4 16q-20 -37 -47 -81q-35 -57 -70.5 -108t-55.5 -61q-18 -6 -36 -4t-14 18t19 45.5t42 74.5q32 55 78.5 126.5t77.5 79.5z" />
    <glyph glyph-name="underscore" unicode="_" horiz-adv-x="475" 
d="M298 45q50 2 88.5 0t37.5 -5q5 -13 3 -25.5t-16 -26.5q-18 -14 -77 -21.5t-122.5 -10.5t-113 -1.5t-48.5 6.5q-10 13 -5 26t17 25q14 17 95 24t141 9z" />
    <glyph glyph-name="a" unicode="a" horiz-adv-x="553" 
d="M584 268q4 -10 1.5 -30.5t-9.5 -35.5q-31 -78 -64 -125.5t-65 -65.5q-18 -8 -37.5 -10.5t-36.5 3.5t-30 23t-20 49q-6 15 -6 32.5v36.5q-18 -40 -37.5 -62.5l-37.5 -41.5q-24 -26 -58 -35.5t-67 -2.5t-60.5 30t-39.5 63q-14 41 -14 81.5t9 77t24 68t31 56.5q18 23 41 44
t46.5 37.5t46.5 27t42 12.5q15 1 35 -2.5t39 -9.5t34.5 -13.5t20.5 -13.5q15 5 26.5 3t11.5 -7q-1 -8 -6.5 -38t-11.5 -71t-11 -87.5t-6 -87.5q-2 -62 6 -88t27 -26q21 0 40.5 14t37.5 35t33 47.5t26 50.5q13 29 20.5 49.5l10.5 29t4.5 5t3.5 -21.5zM157 55q25 -1 48.5 14.5
t44 39.5t37.5 54t29 59q0 14 2 35.5t5 43.5t6.5 41t6.5 30q2 12 4 20l2 15q-33 23 -69.5 32.5t-73 1.5t-68 -31.5t-53.5 -64.5q-19 -42 -22.5 -92.5t7.5 -94.5t34.5 -73t59.5 -30z" />
    <glyph glyph-name="b" unicode="b" horiz-adv-x="525" 
d="M553 218q-9 -16 -28.5 -21t-36.5 -3q-20 4 -32.5 7.5t-29.5 11.5q-18 -52 -47 -88q-17 -23 -37.5 -45t-42.5 -39t-43.5 -28t-39.5 -12q-30 -2 -50.5 -1t-38 6t-31.5 16t-28 30q-18 24 -28 66t-14.5 93t-4 108t4 111.5t8 102t9.5 80.5q5 47 14 102t22.5 120t34.5 140.5
t53 164.5q17 48 41.5 79.5t41.5 40.5q19 13 33 12q14 -2 22.5 -13.5t14.5 -34.5q20 -95 13 -204t-50 -243l-21.5 -68t-21 -59.5t-26.5 -63l-35 -78.5q-11 -20 -23 -47.5l-25 -56.5q-8 -14 -18 -33.5l-19 -38.5l-20 -46q2 -37 6 -68t12.5 -58t24 -50.5t41.5 -44.5
q9 -8 34 -11t55.5 5t64 31.5t58.5 67.5q15 32 23 74q-29 18 -59 42t-51.5 50.5t-32.5 54.5t-4 54q2 7 8 18t16 22t23 18.5t28 8.5q18 1 36.5 -7.5t33 -23.5t26.5 -32.5t18 -34.5q11 -41 10 -81t-10 -75q20 -6 39 -6t33 6t20.5 11t14.5 16q7 13 8.5 15t6.5 -24.5t-4 -45.5z
M94 654l-8.5 -86t-8 -86t-5 -78t-1.5 -61q1 3 5.5 11.5t8.5 18.5t8.5 19l6.5 13l37.5 83.5l28.5 67.5q16 39 27.5 70t20 60t15 58l14.5 64q20 90 28.5 147t9.5 96t-3 65t-7 53q-8 41 -17 44t-21 -12.5t-23 -38.5t-20 -48t-14 -43q-17 -64 -30 -118t-22.5 -103.5t-16.5 -97
t-13 -98.5zM296 442q-11 -2 -16 -13t-2.5 -27.5t12.5 -37.5t31 -43q28 -27 76 -55q0 21 -5 52.5t-17 59t-31.5 46.5t-47.5 18z" />
    <glyph glyph-name="c" unicode="c" horiz-adv-x="464" 
d="M347 37q-30 -18 -68.5 -26.5t-75.5 -10.5t-72.5 8.5t-62.5 35.5q-57 51 -63 123.5t35 163.5l14 23l14 21q17 23 39 44.5t45.5 38t46 27.5t40.5 14q16 2 35 -1.5t36 -10t30 -14t18 -14.5q4 -6 3 -16t-5.5 -19t-14 -15t-22.5 -4t-18 6.5t-6.5 9t-3.5 8.5t-9 7
q-26 10 -54.5 9t-55.5 -13t-51 -34t-40 -55q-21 -40 -26.5 -79.5t3 -74.5t29.5 -64.5t52 -49.5q32 -20 69.5 -19.5t85.5 14.5t94.5 51.5t70.5 86.5q15 35 25 65t12 16q2 -13 3 -27q2 -10 -1.5 -26t-10.5 -32q-7 -18 -17.5 -41.5t-30.5 -48.5t-38.5 -41t-53.5 -36z" />
    <glyph glyph-name="d" unicode="d" horiz-adv-x="554" 
d="M548 212q13 27 19.5 46t10 28t5 4.5t3.5 -24.5q2 -13 0.5 -28.5t-8.5 -29.5q-32 -78 -65.5 -128t-64.5 -66q-35 -18 -59 -12t-40.5 28t-25 55t-10.5 68q-15 -42 -33 -66.5l-34 -45.5q-28 -25 -62 -34t-66.5 -2t-59 31t-37.5 65q-16 41 -16 81t8.5 76.5t24.5 67.5t34 55
q17 23 39.5 44t46 37.5t45 26t37.5 11.5q30 3 62 -6t47 -23q12 65 37 153l55.5 190.5l62 214t56.5 223.5q2 9 11 15t18 5t15 -11t2 -33l-69 -313l-48.5 -224t-36 -154t-27.5 -102q-14 -42 -23 -76.5t-14.5 -65t-7.5 -58.5l-4 -58q0 -63 5.5 -88t25.5 -25t40 13.5t38 34.5
t34.5 47.5t28.5 52.5zM158 59q28 -1 52 15.5t44.5 42.5t35.5 57.5t26 59.5q3 42 8.5 83t14.5 94q-32 20 -69.5 27.5t-72.5 0t-65.5 -31.5t-48.5 -64q-21 -40 -24.5 -89t6.5 -92.5t33.5 -72.5t59.5 -30z" />
    <glyph glyph-name="e" unicode="e" horiz-adv-x="467" 
d="M325 391q-30 -23 -60 -39.5t-64 -31.5l-71 -32.5t-78 -41.5q-1 -30 5 -56.5t18.5 -47.5t29.5 -38t35 -28q33 -20 71.5 -19t84 12t90 46.5t76.5 92.5q15 36 22 57t12 30q4 6 2 -33q2 -11 1.5 -24t-9.5 -34q-7 -18 -16.5 -38t-33 -48.5t-50.5 -49.5t-55 -36
q-26 -14 -61 -22t-72.5 -10t-73 9t-62.5 35q-55 50 -61.5 123.5t35.5 164.5q7 13 14 24t15 22q16 22 38 43t46 37t47 26t40 13q18 2 37 2.5t35.5 -2.5t29.5 -11t17 -24q5 -21 -3.5 -37.5t-30.5 -33.5zM285 410q8 8 9 17t-5 16.5t-17 12t-25 3.5q-51 -4 -94.5 -31.5
t-72.5 -82.5q-4 -8 -8.5 -18.5t-8.5 -21.5q-4 -12 -7 -25l130 68.5t99 61.5z" />
    <glyph glyph-name="f" unicode="f" horiz-adv-x="363" 
d="M395 263q1 -11 0 -26.5t-8 -32.5l-16.5 -38.5t-24.5 -44.5t-35.5 -46t-50.5 -43q-37 -24 -76 -29t-71 1q-29 6 -54 25q7 -30 11 -64t5 -69t-1.5 -69t-7.5 -65q-6 -33 -16.5 -72.5t-23 -79t-26.5 -78t-27 -69.5q-8 -18 -26 -51l-38.5 -67.5t-42.5 -65t-39.5 -44t-26 -4
t-3.5 54.5q3 18 13 64l23.5 106l29.5 127l30.5 126.5l26 105t14.5 64.5l34 159.5l38 178.5l41.5 188l43 188l41.5 178l38 159q13 48 30 100t38 110q17 49 37 80t34 39q10 7 19 10t17 3q27 -5 36 -48q22 -95 13.5 -204.5t-51.5 -244.5q-11 -38 -23.5 -72.5t-28.5 -70.5
t-37.5 -75t-50.5 -86l-32 -50l-35.5 -54l-37.5 -54l-36 -50l-8.5 -40.5l-9.5 -47.5l1 -1q0 -1 1 -2q5 -10 11.5 -25t16 -31t23.5 -31t36 -25q23 -12 53.5 -7t62 24t60.5 52.5t48 79.5q18 36 24 58.5t8 21.5q3 -3 6 -26zM209 920l-26 -122l-31.5 -142.5l-34.5 -153
l-34 -154.5q27 37 55 82t52 91q41 78 69 148t45 139q20 89 29.5 147t12 96.5t0.5 64.5t-5 52q-2 22 -11.5 33t-16.5 13q-9 3 -18.5 -12.5t-18 -38.5t-16.5 -49.5t-13 -44.5l-20.5 -77t-17.5 -72zM-32 -481q10 27 20.5 63.5t19 76.5t14.5 80t8 73q2 25 -1.5 77.5t-13.5 113.5
l-41 -170.5l-42 -176l-41.5 -176l-40.5 -170.5q17 15 33 38.5t31 51.5t29 59t25 60z" />
    <glyph glyph-name="g" unicode="g" horiz-adv-x="550" 
d="M582 264q2 -10 0.5 -25.5t-9.5 -35.5q-17 -44 -42.5 -78t-58 -62.5t-71.5 -54t-83 -51.5l-18.5 -115t-25.5 -132l-36.5 -141t-36.5 -119q-12 -33 -26.5 -60t-31 -50t-37 -43t-45.5 -40q-26 -18 -61 -25t-71.5 -2t-68.5 23.5t-51 51.5q-21 37 -20 81t14.5 87t34.5 82
t43 68q44 63 94.5 110.5t102 87.5l100.5 75.5t92 73.5q4 21 8.5 49t9.5 53l4 30q-27 -44 -67.5 -70.5t-81.5 -29.5t-76 19.5t-53 74.5q-12 42 -11 82t9.5 76t23.5 67.5t31 55.5q19 24 41.5 45.5t46.5 38t46.5 26.5t41.5 12q15 2 34.5 -2t37.5 -10.5t33 -14t22 -13.5
q5 2 9.5 3t9.5 1q19 2 18 -7l-6 -31.5l-12 -66l-16 -87.5l-17.5 -96.5l-16 -92.5t-12.5 -76l66 46t66.5 51t57 59.5t39.5 71.5q8 19 12 32.5t6 18.5t3.5 0.5t4.5 -21.5zM222 -310q8 35 14 69.5l11 65.5l9.5 57t6.5 44q-80 -59 -152.5 -122.5t-145.5 -142.5
q-21 -21 -37.5 -49t-29 -57t-21.5 -57t-14 -49q-10 -48 -3 -86.5t38 -64.5q23 -23 56.5 -30t70.5 13q27 13 47.5 33t35 42.5t25 46t16.5 44.5t15.5 49.5l20 60.5t20 66.5t17.5 66.5zM159 56q24 0 46.5 14.5t41.5 38t35 52t28 55.5q4 31 9 61.5t8.5 56t6.5 44.5t5 28
q-32 23 -68.5 32t-72 2t-67 -30t-53.5 -64q-20 -41 -23.5 -91t8 -94.5t36.5 -74t60 -30.5z" />
    <glyph glyph-name="h" unicode="h" horiz-adv-x="566" 
d="M598 265q2 -11 0.5 -27t-9.5 -33q-30 -79 -63.5 -127t-64.5 -65q-33 -16 -61.5 -10.5t-51.5 55.5q-14 27 -15 65.5t2 80t5.5 83t-2.5 76.5q-7 45 -34.5 72t-63.5 22q-20 -3 -35 -10t-29 -20.5t-28.5 -34t-31.5 -49.5q-22 -39 -37 -77t-20 -62q-4 -21 -8.5 -50.5l-9 -57.5
t-7.5 -49l-3 -25q-1 -7 -11 -12.5t-20.5 -8t-18.5 -1.5t-8 6q6 40 11.5 73l11 63.5l11 60.5l11.5 66q16 87 35 175.5l38.5 173.5l39.5 165t35 148q12 46 28 99.5t38 112.5q9 22 20.5 42t22.5 35t21 25t15 14q12 8 21 10.5t17 1.5q14 -2 23.5 -12.5t15.5 -33.5
q21 -96 12 -204.5t-51 -242.5l-24 -69.5t-26.5 -66.5t-33.5 -68.5t-45 -76.5q-1 -3 5.5 -1t19.5 4t30 0t38 -14q26 -14 42 -32t26 -40t13.5 -46t3.5 -49q3 -33 -2 -76.5t-6 -80.5v-26.5t2.5 -34t10.5 -28.5t23 -12q19 0 38 13.5t37 35t33.5 48.5t25.5 52q13 27 19 46
t9.5 27.5t4.5 4.5t5 -23zM78 349l60 82t57 92q40 79 69 148t46 138q21 90 28.5 150t8 99.5t-4 64t-6.5 45.5q-4 32 -12 40t-17.5 1t-20 -25t-19.5 -39.5t-16 -41.5t-10 -30l-20 -80.5l-18 -72.5l-26 -120.5l-32 -142l-34.5 -153.5t-32.5 -155z" />
    <glyph glyph-name="i" unicode="i" horiz-adv-x="258" 
d="M57 453q1 7 4 13v2l2 2q0 2 1 4q3 4 7 8l2 2t2.5 2t3.5 3q1 1 2 1l6 3l8 4q13 4 23 2q3 0 5 -2q1 0 2 -1q1 -2 2 -3v-2l-6 -29l-1 -10q-2 -10 -3.5 -20.5t-4.5 -22.5l-5 -34l-11 -85q0 -5 -1 -10l-1 -5q-1 -16 -2 -30q-1 -8 -1 -15q-1 -5 -1 -11v-5v-5q0 -2 -1 -4v-9
q0 -6 1 -11q-1 -12 -2 -22q1 -4 1 -9v-23q1 -13 2 -23q1 -9 2 -16q3 -12 8 -19l1 -2l1 -1q4 -3 8 -5q3 -1 6 -1h4h4q3 0 7 1q10 2 19 7q2 2 3 2q1 1 2 1.5t2 1.5l1 1l6 4q6 5 11 10l3 3q6 6 12 13q1 2 3 4t4 5q6 8 11 16l2 2l3 4l3 4q1 3 2 4q2 3 3 6q5 7 9 14l1 3q3 6 6 11
q1 3 2 4.5t2 3.5q3 4 4 6l6 14l1 3q0 1 1 2t2 3v1q1 2 2 5l1 4q2 2 2 3t1 2q0 2 1 3q0 1 1 2l3 8q0 1 0.5 2.5t1 2.5l1 2t0.5 2.5t1 2.5l1 5l1.5 3t0.5 2q3 6 4 11q1 3 2 5q2 5 2 6l2 1l1 -2q0 -1 1 -3q-1 -1 0 -3v-2q1 -6 2 -14v-4l1 -9q0 -2 -1 -4q0 -2 1 -4q0 -2 -1 -4
q1 -2 1 -5l-1 -2q-1 -7 -2 -15q-2 -7 -4 -15q-1 -2 -1 -4q-23 -62 -59 -115q-16 -25 -32 -43q-1 -1 -1 -2q-7 -8 -14 -14l-2 -1q-1 -2 -2 -3q-4 -2 -5 -3l-6 -4l-2 -1l-3 -2l-1 -1q-4 -2 -10 -4l-8 -3q-1 0 -3 -1h-2t-2 -1q-4 -1 -8 -1q-8 -1 -17 -1h-4q-3 1 -5 1q-1 0 -2 1
h-2q-2 1 -4 1l-2 1q-6 3 -11 6q-1 1 -3 2q-4 3 -9 8q-2 3 -6 7v2q-3 3 -6 8q0 1 -1 2q-2 2 -3 5t-2 5q-5 14 -7 32q-9 36 -13 59t-6.5 68.5t8.5 93.5l19 83q1 7 3 15q1 4 1.5 7.5t2.5 6.5q1 11 2 18zM164 817q10 2 16.5 0t6.5 -5q-3 -13 -4 -25.5t-5 -26.5
q-5 -14 -16.5 -21.5t-23.5 -10.5t-20.5 -1.5t-7.5 6.5q1 13 2.5 26t5.5 25q4 17 19.5 24t26.5 9z" />
    <glyph glyph-name="j" unicode="j" horiz-adv-x="358" 
d="M107 499q20 3 19 -6q0 -8 -5 -39.5l-20 -131.5q-4 -23 -6.5 -54t-1.5 -51q7 -56 17.5 -110t19.5 -111q11 7 25.5 17.5l29.5 21.5l30.5 21.5t25.5 19.5q6 5 12 9.5t12 10.5q22 21 46 47t37.5 56t13.5 31q13 34 17.5 49t7.5 2q1 -5 4 -16q1 -6 1 -14t-1 -16q-7 -23 -12 -37
q-11 -38 -27 -65t-32 -44.5t-29.5 -26.5t-20.5 -16q-27 -20 -60 -41.5l-77 -48.5q2 -21 1.5 -40.5t-1.5 -40.5q-1 -12 -3 -29t-4.5 -35.5t-5.5 -35t-6 -29.5q-19 -78 -45.5 -150.5t-59.5 -148.5q-16 -41 -38 -79.5t-55 -71.5l-22.5 -19.5l-23.5 -19.5q-23 -11 -46 -20.5
t-48 -8.5h-2q-27 1 -53 5t-49 19h-1q-7 5 -14 9.5t-13 11.5l-12 14q-6 7 -10 15q-21 37 -20 80.5t14.5 87t34.5 82.5t42 66q22 28 48 55t55 53l55.5 47.5l56.5 46.5l82 67.5l81 68.5q0 5 -3 16l-25 115t-23 98t-7 61t5 28q4 17 8 28.5t10.5 45t8 42l6 33t5.5 32.5
q4 22 19.5 32t31.5 12zM74 -81l-76.5 -58t-74.5 -62q-8 -7 -14 -13t-13 -12l-25.5 -23t-23.5 -23l-35 -34.5l-35 -35.5q-21 -23 -37.5 -51.5t-29.5 -57.5t-22.5 -56t-12.5 -47q-8 -40 -4.5 -75t25.5 -60q7 -6 13 -12.5t14 -11.5q23 -15 52 -19t65 14q25 12 45.5 31.5
t35.5 42.5t27 46.5t21 43.5q19 42 35.5 91.5t34.5 116.5l13.5 51t8.5 35.5l5.5 28.5t4.5 31q4 30 6 60t-3 59zM157 815q8 1 14 -0.5t5 -5.5q-2 -12 -3 -24t-5 -24q-4 -14 -14.5 -21t-22 -10t-20 -1.5t-7.5 6.5q1 12 2.5 24t5.5 24q4 16 18.5 23t26.5 9z" />
    <glyph glyph-name="k" unicode="k" horiz-adv-x="551" 
d="M582 263q3 -9 1.5 -24.5t-9.5 -32.5q-29 -78 -64.5 -127.5t-63.5 -63.5q-17 -9 -35 -12.5t-35 2.5q-20 5 -37 16t-30.5 25.5t-23 29.5t-14.5 27q-15 38 -28 64.5t-26 45.5t-26.5 31.5t-30.5 20.5q-14 7 -29 3t-29.5 -12t-24 -16t-10.5 -9q-11 -45 -18.5 -94l-16.5 -113
q-1 -7 -11 -12.5t-20.5 -8.5t-19 -2.5t-8.5 5.5l11.5 73.5t11 63.5l11 59.5l11.5 64.5q15 88 34 176.5l38.5 174l39.5 165t35 148.5l30 100t38 109q18 49 42 80.5t38 39.5q23 15 35 12q27 -3 37 -46q21 -95 15 -205.5t-50 -245.5q-12 -36 -30 -75l-38.5 -80t-45 -84
l-49.5 -83q36 27 58 36t44 10q6 1 16 1t21.5 -2t22.5 -7t18 -14q10 -33 -4 -59t-39.5 -46.5t-55.5 -37t-50 -29.5q12 -6 25 -16.5t28.5 -30.5t32 -51t34.5 -77q2 -5 8 -15.5t14.5 -21t18 -20t21.5 -12.5q21 -8 44.5 8.5t43.5 42.5t36 54.5t23 45.5q12 25 17.5 44t8.5 27
t4.5 4t4.5 -24zM80 349l57 82t56 90q40 76 69 147t44 142q21 90 29.5 147.5t9.5 96t-3 64t-6 51.5q-5 42 -18 46q-8 3 -20 -12t-22.5 -38t-20 -49t-14.5 -44l-20 -80t-16 -72l-25.5 -122l-31.5 -142l-34.5 -152.5zM162 314q15 10 26 18.5l22 17l22.5 18t29.5 21.5
q31 24 38 42.5t-3 28t-31 9t-48 -13.5q-14 -7 -28 -20t-28 -29t-25 -32.5t-19 -30.5q-11 -17 -19 -35l-15 -35q11 18 33.5 28t44.5 13z" />
    <glyph glyph-name="l" unicode="l" horiz-adv-x="318" 
d="M351 264q0 -11 -1 -26t-8 -33q-24 -60 -51.5 -104t-51.5 -69q-18 -16 -43 -25.5t-49 -5.5q-46 3 -75 37q-20 23 -31.5 64.5t-16.5 94.5t-4.5 112.5t5 117t9.5 108t9 84.5q6 45 14 98.5t21.5 118t34.5 140.5t53 165q19 48 43.5 79.5t37.5 40.5q26 18 45.5 6.5t29.5 -42.5
q19 -96 11.5 -205t-47.5 -243q-15 -36 -25.5 -66l-21.5 -60t-25.5 -64.5t-35.5 -79.5q-11 -19 -23.5 -46l-26.5 -56l-15.5 -33.5l-18.5 -39.5l-21 -47l4 -62.5t6.5 -57.5t14 -51t26.5 -43q7 -8 16.5 -11.5t19.5 -4.5t18.5 -0.5t14.5 2.5q18 4 35 19t32 36.5t28 46t25 49.5
q12 28 18 47t9 27.5t5 4.5t6 -23zM92 652q-5 -41 -9 -85t-7 -85.5t-4 -77.5t0 -60q1 3 5 11t8 17.5l8 19t6 13.5q23 48 37.5 82.5t26.5 68.5q17 40 28.5 71.5t20 59.5t15 57t13.5 64q22 90 30.5 150.5t9 102.5t-4.5 69.5t-7 52.5q-5 26 -12.5 30t-17 -5.5t-20 -29t-19 -40.5
t-15 -39.5t-8.5 -26.5q-17 -64 -30 -119.5t-23 -105.5t-18 -98t-13 -97z" />
    <glyph glyph-name="m" unicode="m" horiz-adv-x="1006" 
d="M388 500q14 0 24.5 -3t20.5 -9q39 -23 56.5 -53.5t25.5 -64.5q21 33 46.5 60t55 44.5t63 22.5t73.5 -6q27 -10 44 -29.5t26 -43.5t12 -51t4 -53q1 -32 -3.5 -75t-5.5 -81q-1 -10 -0.5 -26.5t3 -32.5t10 -28t21.5 -13q19 0 38.5 14t37.5 35.5t33 48t27 51.5q12 27 18.5 46
l9.5 27.5t4.5 4.5t4.5 -23q2 -12 0.5 -27.5t-8.5 -30.5q-30 -77 -64.5 -126t-63.5 -66q-16 -8 -32 -11t-31 0.5t-28.5 15t-22.5 32.5q-17 37 -16 80.5l2 88.5q2 30 4.5 58t1.5 57q-3 45 -20 76.5t-50 39.5q-24 5 -44 1.5t-36 -11t-28 -17.5t-19 -18q-25 -30 -40.5 -61
t-24 -58.5t-12 -49t-6.5 -32.5q-5 -21 -10.5 -50.5t-11.5 -57t-10 -49t-5 -25.5q0 -6 -9.5 -11t-19.5 -7.5t-18.5 -2t-8.5 6.5q6 38 12.5 69.5l12.5 61t12.5 58l13.5 61.5q1 18 3 35.5t0 40.5q-2 45 -19 76.5t-47 39.5q-26 5 -46.5 1t-36.5 -12t-28 -18.5t-19 -17.5
q-25 -30 -40.5 -61t-24.5 -58t-12.5 -48t-5.5 -32l-9.5 -50.5l-10.5 -57l-9 -49t-5 -25.5q0 -6 -10 -11t-21.5 -7.5t-20.5 -2t-9 6.5q8 55 20.5 109.5t23.5 111.5q9 61 16.5 99.5t-8.5 52.5q-14 12 -28.5 3.5t-41.5 -62.5l-21.5 -50.5t-16.5 -47.5q-5 -7 -9 0.5t-4.5 15.5
t0 16.5t5.5 27.5l8 19q16 34 28 56.5t25.5 41.5t28.5 33.5t30 19.5q31 11 53 -2t32 -47q34 48 77.5 72t83.5 24z" />
    <glyph glyph-name="n" unicode="n" horiz-adv-x="686" 
d="M383 500q16 0 29.5 -2t21.5 -7q38 -21 56.5 -51.5t27.5 -64.5q7 -53 1 -105t-11 -110q-2 -16 -3 -33t2 -31t12 -23.5t27 -12.5t37 10.5t38 36.5t34.5 51t26.5 54t17.5 44t9 26.5t4 5.5t5.5 -21q2 -13 0.5 -29.5t-8.5 -32.5q-28 -77 -63.5 -126t-65.5 -65q-24 -13 -46 -11
t-38 13.5t-26.5 29t-11.5 35.5q-6 58 -1 124.5t1 131.5q-5 44 -19.5 76t-48.5 40q-23 6 -42 2t-35 -12.5t-27.5 -20t-18.5 -20.5q-24 -29 -40 -59.5t-25 -57.5t-13.5 -48.5t-7.5 -33.5q-5 -21 -10.5 -49.5l-10.5 -56.5l-9 -49t-4 -25q-1 -8 -11 -13t-20.5 -7.5t-19.5 -2
t-9 5.5q8 54 19 108.5t21 114.5q9 61 17 101t-7 54q-11 10 -23.5 0t-21.5 -25l-20 -34t-24 -50.5t-18.5 -47.5t-9 -5.5t-4.5 20t-1 14.5t6 27l8 22q12 29 24.5 53t27 43t30 33.5t30.5 19.5q29 14 51.5 0t33.5 -49q16 24 36 42t41 29.5t41.5 17.5t37.5 6z" />
    <glyph glyph-name="o" unicode="o" horiz-adv-x="536" 
d="M563 216q-9 -14 -24.5 -20t-37 -3.5t-35.5 7t-30 12.5q-19 -51 -46 -88q-17 -23 -37 -44.5t-42 -38.5t-44 -27.5t-42 -11.5q-8 -1 -19 -1.5t-21 -0.5q-6 0 -12.5 0.5t-12.5 1.5q-51 6 -92 43q-57 51 -63 123t36 163q6 13 13 24l14 22q17 23 39.5 44t45.5 37.5t45.5 27
t39.5 12.5q15 3 31 1q11 0 20 -2t19 -4q5 2 10.5 3l11.5 2q10 0 20.5 -2t21.5 -9q24 -11 42.5 -33t29.5 -54q12 -41 12 -80t-10 -75q37 -8 68.5 3.5t40.5 27.5q8 19 12 12t7 -22t-11 -50zM333 435q-11 -3 -20.5 -4t-17.5 2q-13 -14 -6 -45.5t43 -69.5q13 -12 32.5 -26.5
t43.5 -27.5q0 26 -4 51.5t-11.5 47.5t-20 39t-27.5 27q-8 5 -12 6zM194 55q17 -3 40.5 -0.5t49 13.5t50.5 32.5t44 55.5q20 33 26 74q-29 18 -59 42t-52 52t-32.5 56.5t-0.5 54.5q0 3 3 7q-15 4 -35 4q-43 -2 -83 -27.5t-65 -74.5q-21 -41 -24 -79.5t6 -71.5t26 -59t34 -44
q15 -14 32.5 -23t39.5 -12z" />
    <glyph glyph-name="p" unicode="p" horiz-adv-x="551" 
d="M582 262q3 -11 1 -26.5t-8 -32.5q-7 -17 -16.5 -37t-23 -40.5t-34 -41t-50.5 -39.5q-33 -19 -65.5 -31.5t-69.5 -14.5q-34 -2 -66.5 0t-65.5 5q-79 -18 -135 20q-14 -64 -38.5 -151.5l-53.5 -189l-60 -212.5t-57 -222q-2 -9 -11 -15t-18 -5.5t-14 10.5t-1 34l66.5 311.5
l48.5 224l35.5 154t27.5 101.5q16 56 28 112t17 89t8 47.5l6.5 31.5l7 35l6.5 34q0 12 9.5 21.5t21 15.5t23 8t16.5 -2q9 -7 12 -13q26 26 61.5 42t72.5 15q11 0 24.5 -2.5t24.5 -7.5q17 -6 32.5 -17.5t28.5 -30.5t21.5 -47.5t9.5 -68.5q3 -61 -11.5 -106.5t-42.5 -86.5
q-4 -5 -10.5 -15t-19 -22.5t-30.5 -27t-45 -28.5q13 -2 27.5 -3t28 -1t24.5 1t17 3q34 10 67 22t62 38q21 19 40.5 46t34.5 62q16 36 22 58.5t10 20.5q1 0 4 -25zM99 90q86 -57 154 -1q34 24 54.5 56t28.5 67.5t5.5 74.5t-12.5 79q-12 49 -41 67t-69 20q-24 0 -42.5 -9.5
t-32.5 -26.5t-24.5 -38.5t-20.5 -45.5l-16.5 -103.5t-17.5 -101.5q8 -11 16.5 -21.5t17.5 -16.5z" />
    <glyph glyph-name="q" unicode="q" horiz-adv-x="551" 
d="M583 264q3 -10 1 -25.5t-10 -32.5q-28 -78 -63.5 -131.5t-64.5 -68.5q-18 -11 -39 0q-18 11 -37 36q15 -64 16.5 -139t-9.5 -140q-6 -34 -16 -73t-22 -78.5t-25.5 -77.5t-27.5 -70q-8 -18 -26.5 -50.5t-40.5 -67t-44.5 -65t-39.5 -44.5t-25.5 -5t-3.5 54q15 73 37 169.5
l46 203.5l49 219l48 216q-11 -18 -23 -29.5t-20 -20.5q-26 -27 -60 -37t-66.5 -3.5t-59.5 30t-40 65.5t-12.5 82t9.5 75.5t24 66.5t32 55t39.5 45.5t46.5 38t46.5 26.5t41.5 12q15 2 34.5 -2t37.5 -10.5t33 -15t22 -14.5q14 7 27.5 5t12.5 -8q0 -4 -5 -31.5t-13.5 -68.5
l-18.5 -91.5t-18 -99.5l22 -44.5t34 -41.5q18 -15 37 -6t36 31.5t33 52.5t28 56q13 26 19 45t9 27t4 4t5 -24zM157 55q26 0 49 15t42.5 39t35 53t25.5 57q4 13 6.5 25l5.5 26q9 45 15.5 82t10.5 55q-36 25 -73.5 33.5t-74 0t-67.5 -32.5t-51 -63q-21 -41 -24.5 -91t7 -94.5
t34 -74.5t59.5 -30zM342 -184q1 24 -2 76.5t-13 112.5l-35.5 -150l-43 -178l-45 -187.5t-40.5 -177.5q16 15 32.5 38.5t30.5 51.5t27.5 58.5l25.5 59.5q10 26 20.5 63.5t19.5 78t15 81t8 73.5z" />
    <glyph glyph-name="r" unicode="r" horiz-adv-x="412" 
d="M443 263q2 -11 2 -20t-10 -39q-30 -77 -65.5 -126t-63.5 -65q-17 -9 -36 -12t-36 3t-30 23t-20 49t-10 67t-4 68q1 12 3.5 34.5t5.5 45.5t6.5 44.5t4.5 32.5q2 8 3 14l2 11q-22 -20 -54 -15.5t-56 31.5q-11 -46 -24 -90t-30 -93q-3 -12 -10 -18t-14 -9q-7 -2 -11.5 -2.5
t-3.5 1.5l15.5 43.5l13.5 36.5q9 31 15.5 63t10.5 58q4 31 5 60q2 18 11.5 27t20.5 12t19.5 1t10.5 -5q2 -8 0.5 -13t-0.5 -15q0 -11 17.5 -25t35.5 -22q16 -6 24 0t14 15q8 11 19 17t21 7.5t18 0t7 -5.5q-1 -8 -6 -37.5l-11.5 -70t-11.5 -87t-5 -87.5q-1 -60 6 -86t28 -26
q19 0 38.5 14t37.5 35.5t33 48t27 52.5t18.5 45.5l9.5 28t4.5 4.5t4.5 -24z" />
    <glyph glyph-name="s" unicode="s" horiz-adv-x="474" 
d="M237 500h16q19 0 18 -23q-1 -7 -19 -32l-5 -19q-5 -38 46 -99q25 -54 19 -94l-1 -12q-14 -97 -125 -184h16q184 0 263 166q13 25 33 83h2q9 0 6 -53q-15 -61 -80 -143q-72 -90 -192 -90h-44l-69 5l-16 -5q-93 0 -139 88q-11 25 -7 48l2 18q6 40 29 51q42 112 62 144
q94 151 185 151zM24 202q11 1 5 -66q11 -42 77 -74l13 -7q53 12 90 35q47 41 58 87l1 5q9 63 -52 136q-67 78 -41 123q-94 -71 -146 -227z" />
    <glyph glyph-name="t" unicode="t" horiz-adv-x="357" 
d="M398 773q15 -6 17 -8.5t-5 -10.5q-3 -5 -7.5 -5.5t-13 1t-21 3t-30.5 0.5q-22 -1 -39 -3.5t-33 -7.5t-34.5 -12.5l-45.5 -18.5q-1 -1 -2 -1q-7 -33 -14.5 -63.5l-15.5 -63t-18 -68l-22 -79.5q-10 -44 -16.5 -79t-11 -66.5t-7.5 -61t-6 -62.5q0 -14 3 -28.5t9.5 -28
t15.5 -24.5t21 -17q22 -14 42.5 -15.5t54.5 3.5q25 6 45.5 21t37 37t28 46l23.5 49l17 44t10 28t4.5 5t3.5 -24q2 -8 1 -24t-9 -34q-27 -78 -61 -119.5t-66 -58.5q-10 -7 -28 -14t-40 -10.5t-45 -2t-44 11.5t-38 24t-30 49q-9 31 -13 59t-3.5 55t4.5 54t10 57q12 64 23 114
t21.5 92.5t22 81l23.5 78.5q-17 -10 -28 -18t-22 -17l-22.5 -19t-28.5 -23l-25 -18t-24 -16q-9 -6 -18 -7t-16.5 1.5t-10.5 8t0 14.5q8 22 20.5 37t29.5 27.5t40.5 25.5l55.5 31l22 12t15.5 8t12.5 5.5l15 6.5q15 48 28.5 106.5t29.5 138.5q3 10 12 16.5t18 5.5t14 -12
t1 -36l-22.5 -110l-17.5 -89q6 2 17.5 6.5t19.5 6.5q14 5 35.5 9t45.5 5.5t46 -0.5t39 -9z" />
    <glyph glyph-name="u" unicode="u" horiz-adv-x="562" 
d="M594 263q2 -11 0.5 -26.5t-8.5 -32.5q-30 -78 -64.5 -126t-64.5 -64q-17 -9 -35.5 -12.5t-35.5 2.5t-30.5 23t-20.5 48q-3 17 -5 34.5l-4 36.5q-18 -40 -37 -63.5t-36 -41.5q-24 -26 -59 -35.5t-68.5 -2t-61 31.5t-39.5 65q-11 38 -12.5 75t4.5 79l5.5 34t8.5 45t9 44
t7 31q5 21 5.5 30.5t2.5 17.5q3 22 19 31.5t32 11.5q8 2 13 0t5 -4q-18 -77 -29.5 -146t-13.5 -148q-1 -28 5.5 -54t18 -46.5t28.5 -33t38 -12.5q22 0 41 10.5t35.5 28t31 40.5t26.5 47q6 15 12 37l12 44.5t9.5 43.5t5.5 34q4 16 7 35t5 35l7 46q2 18 13.5 28t24 13.5
t23 2.5t9.5 -5l-4.5 -23.5t-8 -45.5l-10.5 -60t-11 -67.5t-8.5 -67.5t-3.5 -60q-1 -61 5.5 -87t29.5 -25q19 0 38 14t37 35.5t33 48t27 52.5t18 45t9.5 27.5t5 4.5t4.5 -23z" />
    <glyph glyph-name="v" unicode="v" horiz-adv-x="632" 
d="M659 218q-7 -13 -22.5 -19t-37.5 -4q-26 4 -38 8t-32 13q-22 -49 -48 -82q-24 -32 -49 -56t-56 -44q-22 -14 -47.5 -25t-53.5 -8q-19 3 -38 16t-45 39q-27 34 -37 74t-8 86v2q0 15 2.5 35.5t4.5 41t4 39t2 28.5q1 10 1.5 22t0 22.5t-2.5 19t-5 11.5q-12 9 -28.5 -10.5
t-41.5 -68.5q-21 -45 -29.5 -67t-19.5 -56q-9 -25 -20 -16t5 57q4 14 12 37l22.5 55t27.5 54.5t30.5 42.5t36.5 29q29 13 51.5 -0.5t33.5 -47.5q4 -12 4.5 -28.5t-1 -35t-5 -37.5t-6.5 -37v-2l-10 -56.5t4 -73.5q6 -26 15.5 -48t21.5 -38.5t24 -26t23 -9.5q24 0 47 10.5
t47 28.5q34 28 60 64t37 81q-28 15 -55 37t-48 47.5t-32 52t-6 52.5q-1 6 4.5 17.5t15 23t22 20.5t28.5 10q23 1 45 -11q23 -11 42 -32.5t29 -54.5q13 -42 11.5 -80t-12.5 -72q18 -6 35 -6t30.5 5t25.5 12.5t24 25.5q7 16 9 11t5.5 -29.5t-9.5 -48.5zM429 320
q12 -14 30.5 -27t41.5 -24q5 49 -11 94t-48 67q-13 8 -21.5 10t-17.5 0q-10 -3 -14.5 -14.5t-2.5 -28t12 -36.5t31 -41z" />
    <glyph glyph-name="w" unicode="w" horiz-adv-x="826" 
d="M857 255q1 -6 0.5 -17t-4.5 -19q-12 -18 -30.5 -24t-39.5 0q-19 5 -29 9t-25 12q-9 -29 -31.5 -64.5t-52 -68t-64.5 -55.5t-68 -25q-29 -2 -49.5 -1.5t-36.5 4t-28 10.5t-22 20q-11 12 -23.5 30.5t-16.5 37.5q-6 20 -9 43q-16 -37 -34 -64.5t-33 -43.5
q-28 -26 -63.5 -34.5t-69.5 -0.5t-63 33t-44 67q-10 31 -10 71t5 76q1 11 5 32.5l9 46.5l9.5 47.5l7.5 36.5q3 18 4 26l3 16q2 20 18.5 30.5t34.5 12.5q10 2 16 0t6 -7q-10 -38 -17 -72.5t-12.5 -69t-9 -70t-4.5 -75.5q-1 -30 4 -57.5t16 -49t28.5 -34.5t40.5 -13
q19 0 37.5 10.5t35.5 27.5t31.5 37.5t25.5 41.5q17 45 25.5 80t14.5 62q7 33 10 55l7 49q2 18 3.5 26t3.5 16q2 20 18.5 30.5t39.5 12.5q8 2 12.5 0t4.5 -7l-16.5 -72.5t-13 -69t-9 -70t-4.5 -75.5q-1 -48 9.5 -81.5t40.5 -64.5q14 -6 40 -8.5t57 6t62 31t53 65.5
q9 15 16 38t10 41q-26 15 -53.5 38t-49 50t-33 56t-4.5 57q1 7 6 17.5t13.5 21t19.5 18t25 8.5q20 1 38.5 -6.5t34 -21t27.5 -31t20 -35.5q14 -43 14.5 -80.5t-9.5 -79.5q15 -5 31 -4t30 5.5t25.5 11.5t18.5 16q5 10 6.5 13.5t3.5 2t3 -8.5t1 -25zM595 442q-17 -5 -20 -18.5
t3.5 -31t20 -38t30 -39.5t33 -33.5t28.5 -20.5q1 23 -1 55.5t-12 61t-30 48t-52 16.5z" />
    <glyph glyph-name="x" unicode="x" horiz-adv-x="581" 
d="M613 262q2 -11 0 -27t-8 -33q-31 -74 -66 -125t-63 -65q-19 -7 -39.5 -11t-37.5 4q-20 5 -39 21.5t-48 55.5q-17 19 -29.5 39.5t-23.5 41.5l-21.5 -24t-29.5 -28q-14 -12 -37.5 -30t-50.5 -34.5t-54.5 -29.5t-49.5 -14q-32 -3 -51.5 -0.5t-16.5 13.5q1 7 7.5 9t17.5 3.5
t25.5 5t31.5 12.5q61 29 110 73l97 91q-2 6 -4.5 12t-6.5 12l-29 65.5l-20.5 46.5t-15 31t-14.5 19q-10 9 -22.5 2t-28.5 -33t-25.5 -44.5t-17.5 -38t-13.5 -34.5l-11.5 -31q-19 -27 -15 13.5t17 68.5q13 35 26 58.5t26.5 42.5t28.5 33.5t31 19.5q10 3 14.5 4t12.5 1
q21 -1 34 -16t24 -41q15 -32 27.5 -67t27.5 -68q17 21 29.5 39.5t22.5 35.5t19.5 35l21.5 39q9 15 18 32t19 30q8 12 17.5 17.5t18 5.5t13.5 -6t6 -16q-1 -30 -9 -55.5t-22.5 -50.5t-36.5 -52t-51 -59q-13 -14 -23 -26l-20 -23q21 -40 43.5 -76t53.5 -59q31 -26 57.5 -18
t48.5 32.5t39 58l29 57.5q11 27 17.5 46t10 27.5t5 4.5t4.5 -23z" />
    <glyph glyph-name="y" unicode="y" horiz-adv-x="724" 
d="M747 201q-14 -31 -32 -57t-42 -50q-40 -45 -84 -76t-98 -64q-9 -49 -19 -114.5t-25 -130.5l-35.5 -141.5t-38.5 -118.5q-25 -66 -57 -109.5t-81 -83.5q-26 -17 -62 -24t-72 -2t-68 23t-50 52q-20 38 -18.5 81.5t15 86t34.5 81.5t43 68q39 52 83 96.5t92.5 85.5
t100.5 80.5l109 84.5q4 21 8.5 48.5l8.5 51.5l4 30q-13 -20 -30.5 -35.5t-39.5 -28.5q-25 -23 -55.5 -31.5t-62.5 -5.5q-18 2 -37.5 15.5t-46.5 41.5q-25 31 -34 72.5t-8 85.5q1 18 3 39l5 42q3 21 5 39t2 29q1 21 1 44t-8 30q-13 10 -26 -3.5t-24 -32.5t-24 -49l-30 -69
t-18 -47q-8 -26 -14.5 -1t8.5 62l29.5 70t27.5 55.5t31.5 47.5t31.5 26q31 11 53 -2t32 -46q7 -26 3 -65t-11 -75l-1 -3q-1 -4 -1.5 -8t-2.5 -9q-1 -8 -2.5 -14t-2.5 -11q-4 -20 -5.5 -43t4.5 -47q14 -56 37 -83t50 -38q24 -8 51 1.5t52 32.5q22 15 36.5 37t24.5 41
q18 31 26.5 71.5t13.5 73.5q4 31 7 58.5t4 47.5q1 24 1 43q0 11 5 18.5t13 13t16 8t15 3.5q8 1 16 -1t8 -6l-7 -63.5t-21 -143.5q-4 -16 -9 -38.5t-11.5 -46.5t-12 -46.5l-9.5 -39.5q-7 -33 -11 -57.5t-10 -53.5q38 23 65.5 44l57.5 46q36 31 62.5 64t43.5 72q8 20 13 35
t7 19t4 -0.5l7 -15.5t-0.5 -29.5t-12.5 -37.5zM394 -312q8 36 14 70t11 65.5l9 57t8 42.5q-168 -109 -298 -264q-22 -22 -37.5 -49.5t-28 -56.5t-21.5 -56t-13 -48q-9 -47 -4 -86.5t35 -63.5q28 -24 59.5 -31.5t77.5 13.5q24 14 43 33.5t32.5 42t23.5 45.5t16 44
q9 21 18.5 50l20 61.5t19 66t15.5 64.5z" />
    <glyph glyph-name="z" unicode="z" horiz-adv-x="579" 
d="M350 0l30.5 21.5l37.5 26.5l38 27.5t32 25.5q11 12 23 23.5t23.5 25t22 31.5t22.5 42q12 29 18 46t10 15.5t6 -19t-2 -35.5q-4 -15 -9 -26q-15 -45 -39 -78t-55.5 -60.5t-70 -52.5l-82.5 -53q2 -20 1.5 -40t-1.5 -41q0 -13 -3 -30l-5 -35q-2 -18 -5.5 -35.5t-6.5 -29.5
q-20 -78 -46 -151t-60 -148q-18 -42 -39.5 -81.5t-54.5 -71.5q-11 -11 -22 -20t-25 -19q-22 -11 -45 -20.5t-48 -9.5h-1q-28 1 -54.5 5t-48.5 19h-1l-14 10t-13 12h-1q-5 8 -10.5 15t-10.5 15q-21 37 -20 80.5t14 87t34.5 82.5t42.5 67q43 55 90 101t96 87t100 79.5
l101 78.5q-5 23 -18 47t-45 34q-31 -17 -55.5 -28t-38.5 -15q-15 -5 -24 -6t-11.5 0.5t-1.5 5t3 8.5q7 14 23 28.5t47 30.5q8 5 23 9.5t21 3.5q30 29 47 59.5t29.5 67t13.5 75t-8 77.5q-13 50 -41.5 68.5t-53.5 19.5q-24 1 -43 -9t-33 -24t-25 -28.5t-19 -27.5
q-19 -32 -33 -68.5l-25 -67.5q-12 -24 -14.5 5.5t9.5 57.5q10 28 23 54.5t29 53.5q14 19 30 37.5t37.5 33t48.5 23.5t44 8q12 -1 24 -3.5t25 -7.5q15 -6 31 -17.5t28.5 -30.5t21 -47t9.5 -68q-1 -63 -16.5 -106t-38.5 -84q-31 -43 -50 -60q25 -14 46.5 -30.5t31.5 -45.5z
M303 -70l-82.5 -62t-78.5 -66q-7 -6 -13.5 -12.5t-13.5 -12.5l-25 -22.5t-24 -23.5q-65 -59 -108.5 -126.5t-63.5 -155.5q-8 -42 -5.5 -76.5t25.5 -60.5q7 -6 13 -12.5t14 -11.5q24 -15 53 -19t66 13q25 13 45 33t35 42.5t27 46t21 44.5q19 43 36.5 92t34.5 116q9 31 14 52
l8.5 36.5t6 29t4.5 31.5l7.5 62.5t3.5 62.5z" />
    <glyph glyph-name="braceleft" unicode="{" horiz-adv-x="398" 
d="M500 1247q28 40 24 17.5t-87 -114t-115.5 -188.5t-1.5 -214.5t-10.5 -164.5t-89 -63.5t-16.5 -24t68.5 -50t-22.5 -162.5t-55.5 -220t44 -171t58.5 -86t-7 -43t-62.5 -9t-70.5 92t-41 177.5t61 219.5t46.5 160t-51.5 56.5t-41 25.5t2.5 27t51 24.5t70.5 46t5 152.5
t8.5 215t92.5 168t139 129z" />
    <glyph glyph-name="bar" unicode="|" horiz-adv-x="296" 
d="M130 -203q-18 -45 -32 -48.5t-22 26.5q-6 0 21.5 202.5t67 462.5t79.5 497t62 284q20 45 36 51t20 -28q4 0 -14.5 -148.5t-49.5 -350.5q-37 -248 -90.5 -575.5t-77.5 -372.5z" />
    <glyph glyph-name="braceright" unicode="}" horiz-adv-x="398" 
d="M41 -228q-29 -40 -25 -17.5t87 114t116 188t2 214.5t10 165t88.5 63.5t16.5 24t-68.5 50t23 162.5t55.5 220t-44 171t-58 86t7 43t63 9t70 -92t40 -177.5t-61 -219.5t-46.5 -160t52 -56.5t41.5 -25.5t-3 -27t-51 -24.5t-70 -46t-5 -152.5t-8 -215t-92 -168t-140 -129z
" />
    <glyph glyph-name="asciitilde" unicode="~" horiz-adv-x="602" 
d="M400 352q35 -17 61 -13t49.5 21.5t33.5 25.5t9.5 -4.5t-11 -28t-29 -35t-48.5 -29t-70 4t-83 33.5t-69.5 15.5t-53 -17t-36.5 -13.5t2.5 18.5t44.5 38t66 25t67.5 -8.5t66.5 -33z" />
    <glyph glyph-name="cent" unicode="&#xa2;" horiz-adv-x="672" 
d="M514 929h4q8 0 10 -16t-28 -116h4q19 8 80.5 4t76.5 -30t13 -40t-34 -42h-8q-10 3 -24 33.5t-68.5 30.5t-58.5 -28q-44 -202 -72 -400h4q59 0 143 80l42 8h12l6 -8l-1 -12q-87 -103 -220 -140l-10 -70q-2 -17 -31 -32.5t-32 -11.5t0.5 27t11.5 83h-4q-105 45 -135 132
t21 199t200 189q32 0 37.5 40t24.5 77.5t36 42.5zM265 509q-17 -122 96 -172v4l79 388q-152 -60 -175 -220z" />
    <glyph glyph-name="sterling" unicode="&#xa3;" horiz-adv-x="916" 
d="M683 1000h33q92 0 159 -79q11 -33 8 -59q-8 -52 -42 -59h-6q-10 11 -44 82q-62 50 -140 50h-6q-116 0 -186 -141q-25 -58 -37 -140l-11 -82l-4 -48h3q45 0 201 48h9q6 0 6 -14q-4 -30 -59 -62q-73 -26 -133 -26h-34l-14 -95q-40 -178 -85 -278h6q20 12 70.5 17.5
t159 -26.5t143 -32t131.5 74l17 5l5 -8q-8 -62 -116 -110q-42 -17 -92 -17t-123.5 18t-99.5 29t-66 5.5t-92 -39.5q-20 -11 -35 -11h-3l-5 5q68 140 88.5 232.5t40.5 236.5q-90 11 -159 31l1 6l12 11l150 -3l4 28l7 71q31 225 164 312q99 68 174 68z" />
    <glyph glyph-name="yen" unicode="&#xa5;" horiz-adv-x="1017" 
d="M182 1000h9q62 -41 185 -339q9 0 8 -13h5q198 234 311 329l33 10l4 -10q-23 -92 -336 -372l-2 -14q186 34 214 34h18l8 -7q-4 -33 -241 -67l-8 -89h4q166 36 191 36h5l9 -6q-8 -53 -217 -87h-5l-29 -212q-24 -165 -111 -186l-28 -7l-9 7q93 263 109 372l3 23h-5
q-100 0 -211 50v3l5 3h5q75 -13 128 -13q84 0 85 10l7 47l11 49h-27q-232 11 -229 30l21 14l18 -4l218 -3h4l1 3q-15 0 -64 113q-120 233 -112 289z" />
    <glyph glyph-name="copyright" unicode="&#xa9;" horiz-adv-x="600" 
d="M396 690q63 0 118.5 -32.5t80.5 -92.5t16 -125t-50.5 -124.5t-105.5 -92.5t-129 -33t-120 33t-79.5 92.5t-15.5 124.5t51 125t106.5 92.5t127.5 32.5zM393 668q-58 0 -116.5 -29.5t-96.5 -84t-47 -114.5q-8 -59 14.5 -113.5t72.5 -84.5t109 -30t118 30t96.5 84.5
t45.5 113.5q9 60 -14 114.5t-73.5 84t-108.5 29.5zM402 642h9q48 0 70 -41l2 -5q12 5 23 5h1q21 0 23 -13v-2l-2 -1q-2 10 -15 10h-2q-11 0 -26 -8l-1 -11v-3q-4 -26 -31 -50q-9 -6 -15 -6q-13 0 -12 19v1q3 23 39 49q1 6 -29 22q-22 10 -43 10h-2q-50 0 -102 -43
q-57 -54 -68 -133t35 -128q39 -46 130 -46q76 0 112 67q7 20 10 26q2 5 3 -16q-10 -30 -21 -44q-24 -36 -80 -52q-26 -7 -52 -7h-14q-110 0 -145 104q-8 36 -4 66l2 13q9 65 66 138q32 35 62 55q43 24 77 24z" />
    <glyph glyph-name="registered" unicode="&#xae;" horiz-adv-x="600" 
d="M396 690q63 0 118.5 -32.5t80.5 -92.5t16 -125t-50.5 -124.5t-105.5 -92.5t-129 -33t-120 33t-79.5 92.5t-15.5 124.5t51 125t106.5 92.5t127.5 32.5zM379 640h7q21 0 47 -28q12 -18 9 -39q-6 -41 -67 -101q-23 -20 -31 -25q28 -8 43 -26q25 -22 31 -75q-2 -39 0 -54
q5 -28 22 -28h4q24 0 50 77q3 4 8 18h1q1 0 2 -16q-19 -56 -33 -73q-23 -30 -43 -30q-24 0 -32 44q-2 13 -1 53q-4 29 -12 46q-21 52 -64 52q-4 0 -34 -9q-9 -1 -9 -5q-29 -120 -42 -162q-4 -7 -16 -17h1q50 -30 109 -30t118 30t96.5 84.5t45.5 113.5q9 60 -14 114.5
t-73.5 84t-108.5 29.5t-116.5 -29.5t-96.5 -84t-47 -114.5q-8 -59 14 -114q21 -50 66 -80q5 38 50 233q10 36 24 79l1 6h-1q-1 -8 -21 -24q-19 -12 -33 -12q-15 0 -13 15l1 5q3 28 34 51q13 9 28 9q21 0 22 -28h1q10 18 41 47q19 13 32 13zM305 564l-2 -12q-4 -29 -20 -107
q17 8 38 8q44 15 80 65q18 28 21 49l1 5q3 19 -22 42q-15 8 -26 8q-23 0 -49 -26q-12 -15 -21 -32zM226 548l-1 -4q-1 -8 8 -9q12 0 30 19q8 9 9 17l-1 10q7 4 13 4l3 -1q-3 9 -13 9h-1q-25 0 -44 -38z" />
    <glyph glyph-name="degree" unicode="&#xb0;" horiz-adv-x="338" 
d="M433 856q-9 -60 -56.5 -102t-107.5 -42t-96.5 42t-27.5 102q8 59 56 101.5t108 42.5t96 -42.5t28 -101.5zM312 753q38 14 57 53.5t9 81.5t-43.5 62t-71.5 7q-37 -14 -56.5 -53.5t-8.5 -81.5q10 -42 44 -62t70 -7z" />
    <glyph glyph-name="mu" unicode="&#xb5;" horiz-adv-x="559" 
d="M591 263q2 -11 0.5 -26.5t-8.5 -32.5q-30 -78 -64.5 -126t-64.5 -64q-17 -9 -35.5 -12.5t-35.5 2.5t-30.5 23t-20.5 48q-3 17 -5 34.5l-4 36.5q-18 -40 -37 -63.5t-36 -41.5q-24 -26 -59 -35.5t-68.5 -2t-58.5 22.5t-36 -45.5t-20.5 -135t-35.5 -92.5t-15 72.5t25 195.5
l32 233l5.5 34t8.5 45t9 44t7 31q5 21 5.5 30.5t2.5 17.5q3 22 19 31.5t32 11.5q8 2 13 0t5 -4q-18 -77 -29.5 -146t-13.5 -148q-1 -28 5.5 -54t18 -46.5t28.5 -33t38 -12.5q22 0 41 10.5t35.5 28t31 40.5t26.5 47q6 15 12 37l12 44.5t9.5 43.5t5.5 34q4 16 7 35t5 35l7 46
q2 18 13.5 28t24 13.5t23 2.5t9.5 -5l-4.5 -23.5t-8 -45.5l-10.5 -60t-11 -67.5t-8.5 -67.5t-3.5 -60q-1 -61 5.5 -87t29.5 -25q19 0 38 14t37 35.5t33 48t27 52.5t18 45t9.5 27.5t5 4.5t4.5 -23z" />
    <glyph glyph-name="divide" unicode="&#xf7;" 
d="M365 495q9 2 16 0t6 -5q-2 -13 -3 -25.5t-5 -26.5q-5 -14 -16.5 -21.5t-23.5 -10.5t-20.5 -1.5t-8.5 6.5q2 13 3.5 26t4.5 25q5 17 20.5 24t26.5 9zM386 347q50 1 88.5 0t38.5 -3q4 -6 3.5 -12.5t-13.5 -13.5q-17 -7 -75.5 -10.5t-121.5 -5t-112.5 -1t-49.5 3.5
q-4 5 -3.5 12t12.5 13q12 9 92.5 12.5t140.5 4.5zM327 249q10 2 16.5 0t6.5 -5q-3 -13 -4 -25.5t-5 -26.5t-16 -21.5t-23.5 -10.5t-20.5 -1.5t-8 6.5q2 13 3 26t5 25q4 17 19.5 24t26.5 9z" />
    <glyph glyph-name="endash" unicode="&#x2013;" horiz-adv-x="475" 
d="M342 353q49 1 87.5 0t38.5 -3q5 -6 4 -12.5t-13 -13.5q-18 -7 -76 -10.5t-121.5 -5t-113 -1t-49.5 3.5q-7 6 -5 12.5t14 12.5q12 9 92.5 12.5t141.5 4.5z" />
    <glyph glyph-name="emdash" unicode="&#x2014;" horiz-adv-x="850" 
d="M584 353q99 1 176.5 0t77.5 -3q17 -6 12.5 -12.5t-27.5 -13.5q-34 -7 -150.5 -10.5t-243.5 -5t-226 -1t-99 3.5q-11 6 -9.5 12.5t24.5 12.5q23 9 183.5 12.5t281.5 4.5z" />
    <glyph glyph-name="quoteleft" unicode="&#x2018;" horiz-adv-x="315" 
d="M383 1238q-4 -12 -11.5 -25t-17.5 -23q-12 -11 -20.5 -22.5t-17 -28t-40.5 -92.5t-29 2l7 43l15 45l29 63q14 28 22 40.5t13 25.5q3 3 10.5 5t15.5 0q11 -2 21.5 -9t2.5 -24z" />
    <glyph glyph-name="quoteright" unicode="&#x2019;" horiz-adv-x="271" 
d="M312 1271q8 2 15.5 0t8.5 -5q3 -13 7 -25.5t10 -40.5l11 -63l3 -45l-5 -43q-19 -78 -30 -2t-14.5 92.5t-9 28t-13.5 22.5q-8 10 -11.5 23t-5.5 25q-2 17 10.5 24t23.5 9z" />
    <glyph glyph-name="quotedblleft" unicode="&#x201c;" horiz-adv-x="471" 
d="M383 1238q-4 -12 -11.5 -25t-17.5 -23q-12 -11 -20.5 -22.5t-17 -28t-40.5 -92.5t-29 2l7 43l15 45l29 63q14 28 22 40.5t13 25.5q3 3 10.5 5t15.5 0q11 -2 21.5 -9t2.5 -24zM539 1238q-4 -12 -11.5 -25t-17.5 -23q-12 -11 -20.5 -22.5t-17 -28t-40.5 -92.5t-29 2l7 43
l15 45l29 63q14 28 22 40.5t13 25.5q3 3 10.5 5t15.5 0q11 -2 21.5 -9t2.5 -24z" />
    <glyph glyph-name="quotedblright" unicode="&#x201d;" horiz-adv-x="471" 
d="M312 1271q8 2 15.5 0t8.5 -5q3 -13 7 -25.5t10 -40.5l11 -63l3 -45l-5 -43q-19 -78 -30 -2t-14.5 92.5t-9 28t-13.5 22.5q-8 10 -11.5 23t-5.5 25q-2 17 10.5 24t23.5 9zM468 1271q8 2 15.5 0t8.5 -5q3 -13 7 -25.5t10 -40.5l11 -63l3 -45l-5 -43q-19 -78 -30 -2
t-14.5 92.5t-9 28t-13.5 22.5q-8 10 -11.5 23t-5.5 25q-2 17 10.5 24t23.5 9z" />
    <glyph glyph-name="ellipsis" unicode="&#x2026;" horiz-adv-x="2048" 
d="M156 91q10 2 16.5 0t6.5 -5q-3 -13 -4 -25.5t-5 -26.5q-5 -14 -16.5 -21.5t-23.5 -10.5t-20.5 -1.5t-8.5 6.5q2 13 3.5 26t5.5 25q4 17 19.5 24t26.5 9zM489 91q10 2 16.5 0t6.5 -5q-3 -13 -4 -25.5t-5 -26.5q-5 -14 -16.5 -21.5t-23.5 -10.5t-20.5 -1.5t-8.5 6.5
q2 13 3.5 26t5.5 25q4 17 19.5 24t26.5 9zM822 91q10 2 16.5 0t6.5 -5q-3 -13 -4 -25.5t-5 -26.5q-5 -14 -16.5 -21.5t-23.5 -10.5t-20.5 -1.5t-8.5 6.5q2 13 3.5 26t5.5 25q4 17 19.5 24t26.5 9z" />
    <glyph glyph-name="fraction" unicode="&#x2044;" horiz-adv-x="415" 
d="M31 -213q-28 -43 -41.5 -38.5t-14.5 27.5q-6 2 66 206l169 464.5l189 497.5t131 302q26 26 40.5 26t16.5 -16q4 -1 -51.5 -161l-130.5 -363l-217 -576.5t-157 -368.5z" />
    <glyph glyph-name="Euro" unicode="&#x20ac;" horiz-adv-x="950" 
d="M800 1000h21q101 0 114 -162v-4l-17 -12q-7 4 -24 54q-43 82 -111 82q-157 0 -376 -298l-36 -62h3q200 78 295 78l2 -4l-1 -4q-1 -13 -169 -62q-53 -22 -150 -42q-21 -48 -26 -81l-3 -27q-9 -62 4 -97q57 0 274 66h15l3 -4q-5 -34 -255 -104l-30 -4q49 -146 174 -224
q51 -35 117 -35h3q115 0 198 154q30 20 50 20l5 -8q-124 -220 -299 -220q-178 0 -305 259q-7 54 -29 54q-65 0 -93 73l4 4h3l94 -23l1 4l1 61q7 47 48 132h-15q-71 0 -103 31l4 3q34 -15 83 -15h7q36 0 38 12q172 291 418 393q35 12 63 12z" />
    <glyph glyph-name="trademark" unicode="&#x2122;" horiz-adv-x="1385" 
d="M740.317 699.831h12.1504q43.6504 -4 41.8506 -15.2012v-0.799805q-3.59961 -20.8008 -151.654 -50.0029q-22.9502 -2.7998 -23.4004 -7.2002q-32.4004 -17.2012 -72.4521 -173.611q-24.75 -117.606 -38.7012 -162.01q-28.3506 -76.0039 -47.7012 -98.4062
q-13.5 -18.001 -22.0508 -25.6016l0.900391 -0.799805l30.1514 -0.799805h3.59961q99.0029 0 164.255 62.4043q25.2002 26.001 45.001 76.8047l4.5 8l3.15039 4q2.69922 -19.6006 -1.35059 -30.4014q-21.6006 -57.2041 -56.7012 -88.4053
q-66.1523 -56.8037 -173.255 -56.8037l-45.4512 2.40039q-58.9512 -52.4033 -126.453 -52.4033q-68.4023 0 -123.754 46.0029q-48.6016 48.4023 -54.9014 71.6045q-22.9502 40.4023 -20.7002 56.0029l0.449219 1.60059q1.80078 12 32.8516 39.6016h4.0498
q9.90039 -13.6006 35.1006 -38.8018q77.8525 -62.4043 205.206 -89.2061q36.9014 -8.40039 48.6016 -8.40039q17.1006 17.6016 38.7012 60.0039q32.8506 73.2041 44.5508 148.409l1.7998 16.8008l8.55078 53.2031q20.7002 131.208 58.9512 176.812h-0.899414
l-29.251 -0.800781q-34.6514 0 -163.805 14.4014l-26.1006 0.799805h-7.65039q-75.1523 0 -100.353 -26.002q-23.8506 -26.001 -26.5508 -41.6025l-0.900391 -5.2002q-1.7998 -11.6006 12.1504 -13.2002q19.3506 0 50.4014 30.001q8.55078 12.001 10.3506 21.6016
l0.450195 14.4014q12.1504 4 16.2002 4h4.9502q10.3506 0 8.10059 -14.001q-5.40039 -34.8018 -56.252 -58.4033q-20.7002 -6.80078 -31.0508 -6.80078h-4.9502q-23.4004 0 -19.3506 25.2021q5.85059 35.6016 48.6016 70.0039q42.3008 25.6016 108.453 25.6016
l144.453 -10.001h31.0508q74.2529 0 92.2529 12.001q81.4521 33.2021 113.854 33.2021zM132.351 243.803v-1.19922q16.6504 -33.6025 54.001 -72.4043q63.9023 -48.4033 125.554 -48.4033q40.0508 0 73.8018 25.2012q-28.8008 0 -116.553 24.002
q-57.1514 19.6006 -108.903 52.8027zM1027.81 699.831h8.5498q36.4512 0 69.752 -36.8018q22.0508 -34.8027 18.4502 -58.4043q48.1514 49.2031 83.7031 49.2031l9.4502 0.799805h0.899414q65.7021 0 99.9033 -70.0039q10.7998 -36.002 3.14941 -84.8057
q-6.2998 -39.6016 -54.4512 -208.812l-9.90039 -44.8027q-9.90039 -63.6035 10.8008 -63.6035q13.0498 0 35.5508 19.2012q40.9512 38.8027 61.2012 90.8057q4.9502 12.8008 7.65039 17.6006l1.7998 1.60059l2.7002 -18.4014l-2.25 -8.80078
q-18.4502 -52.0029 -47.7012 -90.4053q-44.1016 -53.2031 -75.1523 -53.2031h-0.899414q-40.501 0 -35.5518 76.8047v10.001q7.20117 44.002 62.5527 236.814l6.75 31.6016q11.7002 76.0049 -20.7012 108.406q-25.6504 26.8018 -62.5518 26.8018h-1.7998
q-37.8008 0 -73.8018 -45.2021q-4.5 0 -15.3008 -57.2041q-31.0508 -136.809 -70.6514 -272.816q-13.0508 -44.4033 -19.8008 -44.4033q-11.25 -12 -26.1006 -21.6006h-0.900391q-2.7002 0 -2.25 8.40039q57.6016 226.014 99.0029 372.022l1.7998 10.8008
q9.90039 64.4043 -46.8008 89.2051q-13.501 4.00098 -22.0508 4.00098h-4.9502q-37.3516 0 -80.5527 -43.2031q-14.8496 -17.2012 -28.3506 -36.8018l0.450195 -2.40039l-3.15039 -16.8008q-21.1504 -133.608 -103.053 -401.225q-5.84961 -11.2012 -34.2002 -32.4023
h-1.80078q-2.7002 0.799805 -1.7998 5.2002q8.10059 52.0029 77.4023 326.021q17.5508 58.4033 39.1504 111.606l1.35059 9.2002h-1.7998q-1.35059 -9.60059 -30.1514 -32.4014q-29.7002 -17.6016 -52.2012 -17.6016h-6.2998q-18.001 0 -16.6504 20.8018l0.899414 6.7998
q6.75 41.2031 57.1514 73.2051q19.3506 10 36.001 10h9.4502q26.1016 0 30.6016 -39.2021h0.899414q12.6006 22.8018 61.6523 63.6035q30.6006 20.8018 54.9014 20.8018zM785.7 571.423l-0.900391 -5.2002q0.450195 -13.2002 10.7998 -13.2002q22.501 0 53.5518 33.2021
q6.75 10 8.10059 18.4004l0.450195 13.6016q7.2002 4.7998 18 4.7998h4.9502l0.450195 0.799805q-4.9502 10.8008 -19.3506 10.8008h-4.9502q-29.7012 0 -58.9512 -38.4023q-10.3506 -15.2012 -12.1504 -24.8018z" />
    <glyph glyph-name="approxequal" unicode="&#x2248;" horiz-adv-x="602" 
d="M416 466q35 -17 61 -13t49.5 21.5t33.5 25.5t9.5 -4.5t-11 -28t-29 -35t-48.5 -29t-70 4t-83 33.5t-69.5 15.5t-53 -17t-36.5 -13.5t2.5 18.5t44.5 38t66 25t67.5 -8.5t66.5 -33zM400 357q35 -17 61 -13t49.5 21.5t33.5 25.5t9.5 -4.5t-11 -28t-29 -35t-48.5 -29t-70 4
t-83 33.5t-69.5 15.5t-53 -17t-36.5 -13.5t2.5 18.5t44.5 38t66 25t67.5 -8.5t66.5 -33z" />
    <glyph glyph-name="notequal" unicode="&#x2260;" horiz-adv-x="615" 
d="M394 371q50 2 88.5 0.5t37.5 -4.5q7 -11 4.5 -20t-16.5 -20q-17 -11 -76 -17t-122 -9q-14 0 -27 -1q-4 -4 -8 -9q-102 -130 -123 -147t-28 -18.5t-10 6.5q-6 1 51 79l67 89h-35q-49 2 -49 5q-8 11 -4.5 21t15.5 19q13 14 94 19l30 2l15 19l34 44h-4q-63 -2 -112.5 -0.5
t-49.5 4.5q-8 11 -4.5 21t15.5 19q13 14 94 19q64 5 115 6l60 73q74 91 96 116q24 9 31.5 8t-28.5 -50l-101 -136l-7 -9q35 0 63 -1q38 -1 38 -4q7 -11 4.5 -20t-16.5 -20q-17 -11 -76 -17l-65 -6l-49 -63q32 1 58 2z" />
    <glyph glyph-name="lessequal" unicode="&#x2264;" horiz-adv-x="582" 
d="M170 328q11 31 87.5 67t135.5 60q48 21 78.5 32t47 12.5t16 -16.5t-9.5 -35q-12 -19 -67 -47.5t-116 -55.5q-46 -20 -86 -35l15 -6q70 -32 120 -58q42 -22 69 -39t33 -26t-6.5 -22.5t-31.5 -19.5q-21 -5 -72.5 15.5t-104.5 47.5t-88.5 50.5t-28.5 54.5zM360 91q51 2 89 0
t38 -5q5 -13 2.5 -25.5t-16.5 -26.5q-18 -14 -77 -21.5t-122.5 -10.5t-112.5 -1.5t-49 6.5q-10 13 -5 26t18 25q13 17 94 24t141 9z" />
    <glyph glyph-name="greaterequal" unicode="&#x2265;" horiz-adv-x="582" 
d="M517 307q-3 -31 -44.5 -54.5t-102.5 -50.5t-118.5 -47.5t-76.5 -15.5q-17 6 -25.5 19.5t-0.5 22.5t40 26t80 38q58 27 136 59l17 6q-36 15 -76 35q-53 27 -100 55.5t-55 47.5q-3 17 1.5 35t20 16.5t43 -12.5t69.5 -32q53 -24 119.5 -60.5t69.5 -66.5zM360 91q51 2 89 0
t38 -5q5 -13 2.5 -25.5t-16.5 -26.5q-18 -14 -77 -21.5t-122.5 -10.5t-112.5 -1.5t-49 6.5q-10 13 -5 26t18 25q13 17 94 24t141 9z" />
    </font>
</defs>
</svg>
